<?xml version="1.0" encoding="UTF-8" standalone="no"?>
<svg
   viewBox="0 0 448 512"
   version="1.1"
   id="svg1"
   sodipodi:docname="box.svg"
   inkscape:version="1.3 (0e150ed, 2023-07-21)"
   xmlns:inkscape="http://www.inkscape.org/namespaces/inkscape"
   xmlns:sodipodi="http://sodipodi.sourceforge.net/DTD/sodipodi-0.dtd"
   xmlns="http://www.w3.org/2000/svg"
   xmlns:svg="http://www.w3.org/2000/svg">
  <defs
     id="defs1" />
  <sodipodi:namedview
     id="namedview1"
     pagecolor="#ffffff"
     bordercolor="#000000"
     borderopacity="0.25"
     inkscape:showpageshadow="2"
     inkscape:pageopacity="0.0"
     inkscape:pagecheckerboard="0"
     inkscape:deskcolor="#d1d1d1"
     inkscape:zoom="0.4609375"
     inkscape:cx="224.54237"
     inkscape:cy="256"
     inkscape:window-width="1312"
     inkscape:window-height="449"
     inkscape:window-x="0"
     inkscape:window-y="25"
     inkscape:window-maximized="0"
     inkscape:current-layer="svg1" />
  <!--! Font Awesome Pro 6.2.0 by @fontawesome - https://fontawesome.com License - https://fontawesome.com/license (Commercial License) Copyright 2022 Fonticons, Inc. -->
  <path
     d="M342.4 32C367.7 32 390.6 46.9 400.9 70.01L442.5 163.6C446.1 171.8 448 180.6 448 189.6V416C448 451.3 419.3 480 384 480H64C28.65 480 0 451.3 0 416V189.6C0 180.6 1.879 171.8 5.516 163.6L47.11 70.01C57.38 46.89 80.3 32 105.6 32H342.4zM342.4 64H240V160H405.9L371.7 83C366.5 71.45 355.1 64 342.4 64V64zM416 192H32V416C32 433.7 46.33 448 64 448H384C401.7 448 416 433.7 416 416V192zM42.13 160H208V64H105.6C92.95 64 81.49 71.45 76.35 83L42.13 160z"
     id="path1"
     style="fill:#c5c5c5;fill-opacity:1" />
</svg>
