<?xml version="1.0" encoding="UTF-8" standalone="no"?>
<svg
   viewBox="0 0 512 512"
   version="1.1"
   id="svg1"
   sodipodi:docname="key.svg"
   inkscape:version="1.3 (0e150ed, 2023-07-21)"
   xmlns:inkscape="http://www.inkscape.org/namespaces/inkscape"
   xmlns:sodipodi="http://sodipodi.sourceforge.net/DTD/sodipodi-0.dtd"
   xmlns="http://www.w3.org/2000/svg"
   xmlns:svg="http://www.w3.org/2000/svg">
  <defs
     id="defs1" />
  <sodipodi:namedview
     id="namedview1"
     pagecolor="#ffffff"
     bordercolor="#000000"
     borderopacity="0.25"
     inkscape:showpageshadow="2"
     inkscape:pageopacity="0.0"
     inkscape:pagecheckerboard="0"
     inkscape:deskcolor="#d1d1d1"
     inkscape:zoom="0.4609375"
     inkscape:cx="254.91525"
     inkscape:cy="256"
     inkscape:window-width="1312"
     inkscape:window-height="449"
     inkscape:window-x="0"
     inkscape:window-y="25"
     inkscape:window-maximized="0"
     inkscape:current-layer="svg1" />
  <!--! Font Awesome Pro 6.2.0 by @fontawesome - https://fontawesome.com License - https://fontawesome.com/license (Commercial License) Copyright 2022 Fonticons, Inc. -->
  <path
     d="M344 144C344 130.7 354.7 120 368 120C381.3 120 392 130.7 392 144C392 157.3 381.3 168 368 168C354.7 168 344 157.3 344 144zM336 352C326.5 352 317.2 351.3 308.1 349.8L280.1 376.1C276.5 381.5 270.4 384 264 384H224V424C224 437.3 213.3 448 200 448H160V488C160 501.3 149.3 512 136 512H24C10.75 512 0 501.3 0 488V392C0 385.6 2.529 379.5 7.029 375L164.9 217.2C161.7 203.1 160 190.2 160 176C160 78.8 238.8 0 336 0C433.2 0 512 78.8 512 176C512 273.2 433.2 352 336 352zM336 320C415.5 320 480 255.5 480 176C480 96.47 415.5 32 336 32C256.5 32 192 96.47 192 176C192 187.7 193.4 198.1 195.1 209.7L200.1 227.2L32 395.3V480H128V416H192V352H260.7L297 315.6L313.2 318.2C320.6 319.4 328.2 320 336 320V320z"
     id="path1"
     style="fill:#c5c5c5;fill-opacity:1" />
</svg>
