<?xml version="1.0" encoding="UTF-8" standalone="no"?>
<svg
   viewBox="0 0 576 512"
   version="1.1"
   id="svg1"
   sodipodi:docname="eye.svg"
   inkscape:version="1.3 (0e150ed, 2023-07-21)"
   xmlns:inkscape="http://www.inkscape.org/namespaces/inkscape"
   xmlns:sodipodi="http://sodipodi.sourceforge.net/DTD/sodipodi-0.dtd"
   xmlns="http://www.w3.org/2000/svg"
   xmlns:svg="http://www.w3.org/2000/svg">
  <defs
     id="defs1" />
  <sodipodi:namedview
     id="namedview1"
     pagecolor="#ffffff"
     bordercolor="#000000"
     borderopacity="0.25"
     inkscape:showpageshadow="2"
     inkscape:pageopacity="0.0"
     inkscape:pagecheckerboard="0"
     inkscape:deskcolor="#d1d1d1"
     inkscape:zoom="1.5017361"
     inkscape:cx="288"
     inkscape:cy="255.70405"
     inkscape:window-width="1392"
     inkscape:window-height="1027"
     inkscape:window-x="272"
     inkscape:window-y="25"
     inkscape:window-maximized="0"
     inkscape:current-layer="svg1" />
  <!--! Font Awesome Pro 6.2.0 by @fontawesome - https://fontawesome.com License - https://fontawesome.com/license (Commercial License) Copyright 2022 Fonticons, Inc. -->
  <path
     d="m 407.72469,256 c 0,58.93028 -53.59024,106.69132 -119.71295,106.69132 -66.12269,0 -119.71293,-47.76104 -119.71293,-106.69132 0,-58.93029 53.59024,-106.69133 119.71293,-106.69133 66.12271,0 119.71295,47.76104 119.71295,106.69133 z M 288.01174,175.9815 c -50.41036,0 -89.78469,35.09145 -89.78469,80.0185 0,44.17687 39.37433,80.01849 89.78469,80.01849 49.56865,0 89.78471,-35.84162 89.78471,-80.01849 0,-44.92705 -40.21606,-80.0185 -89.78471,-80.0185 z m 180.13057,-39.50914 c 43.77004,36.17504 73.04359,78.76822 86.8854,109.27527 3.08635,6.58486 3.08635,13.91988 0,20.50474 -13.84181,29.75687 -43.11536,72.35005 -86.8854,109.27526 -44.05062,36.50844 -104.56177,67.1822 -180.13057,67.1822 -75.56878,0 -136.07993,-30.67376 -180.11184,-67.1822 -43.770043,-36.92521 -73.024892,-79.51839 -86.940586,-109.27526 -3.069046,-6.58486 -3.069046,-13.91988 0,-20.50474 C 34.875008,215.24058 64.129857,172.6474 107.8999,136.47236 151.93181,99.997273 212.44296,69.290168 288.01174,69.290168 c 75.5688,0 136.07995,30.707095 180.13057,67.182192 z M 48.585881,256 c 12.466979,26.67283 39.402387,66.68208 79.683919,100.02312 40.30959,33.34104 93.89983,60.01387 159.74194,60.01387 65.84213,0 119.43237,-26.67283 159.74196,-60.01387 C 488.06329,322.68208 514.9987,282.67283 527.43762,256 514.9987,228.57699 488.06329,188.56774 447.7537,155.97688 407.44411,122.62749 353.85387,95.962992 288.01174,95.962992 c -65.84211,0 -119.43235,26.664498 -159.74194,60.013888 C 87.988268,188.56774 61.05286,228.57699 48.585881,256 Z"
     id="path1"
     style="fill:#7e488f;fill-opacity:1;stroke-width:0.882928" />
</svg>
