<?xml version="1.0" encoding="UTF-8" standalone="no"?>
<!-- Generator: Adobe Illustrator 23.0.1, SVG Export Plug-In . SVG Version: 6.00 Build 0)  -->

<svg
   xmlns:dc="http://purl.org/dc/elements/1.1/"
   xmlns:cc="http://creativecommons.org/ns#"
   xmlns:rdf="http://www.w3.org/1999/02/22-rdf-syntax-ns#"
   xmlns:svg="http://www.w3.org/2000/svg"
   xmlns="http://www.w3.org/2000/svg"
   xmlns:sodipodi="http://sodipodi.sourceforge.net/DTD/sodipodi-0.dtd"
   xmlns:inkscape="http://www.inkscape.org/namespaces/inkscape"
   version="1.1"
   id="Layer_1"
   x="0px"
   y="0px"
   viewBox="0 0 28 28"
   style="enable-background:new 0 0 28 28;"
   xml:space="preserve"
   sodipodi:docname="icon_plus_black.svg"
   inkscape:version="0.92.2 5c3e80d, 2017-08-06"><metadata
     id="metadata13"><rdf:RDF><cc:Work
         rdf:about=""><dc:format>image/svg+xml</dc:format><dc:type
           rdf:resource="http://purl.org/dc/dcmitype/StillImage" /></cc:Work></rdf:RDF></metadata><defs
     id="defs11" /><sodipodi:namedview
     pagecolor="#ffffff"
     bordercolor="#666666"
     borderopacity="1"
     objecttolerance="10"
     gridtolerance="10"
     guidetolerance="10"
     inkscape:pageopacity="0"
     inkscape:pageshadow="2"
     inkscape:window-width="962"
     inkscape:window-height="834"
     id="namedview9"
     showgrid="false"
     inkscape:zoom="8.4285714"
     inkscape:cx="14"
     inkscape:cy="14"
     inkscape:window-x="2250"
     inkscape:window-y="175"
     inkscape:window-maximized="0"
     inkscape:current-layer="Layer_1" /><style
     type="text/css"
     id="style2">
	.st0{fill:#010101;}
</style><g
     id="g6"
     transform="matrix(0.71428571,0,0,0.70621468,4.0000001,4.1129945)"><path
       class="st0"
       d="M 26.1,7 C 24.8,4.9 23.1,3.2 21,1.9 18.9,0.6 16.5,0 14,0 11.5,0 9.1,0.6 7,1.9 4.8,3.1 3.1,4.8 1.9,7 0.6,9.1 0,11.5 0,14 c 0,2.5 0.6,4.9 1.9,7 1.3,2.1 3,3.8 5.1,5.1 2.1,1.3 4.5,1.9 7,1.9 2.5,0 4.9,-0.6 7,-1.9 2.1,-1.3 3.8,-3 5.1,-5.1 1.3,-2.1 1.9,-4.5 1.9,-7 0,-2.5 -0.6,-4.9 -1.9,-7 z m -3.9,8.2 c 0,0.3 -0.1,0.6 -0.3,0.8 -0.2,0.2 -0.5,0.3 -0.8,0.3 H 16.4 V 21 c 0,0.3 -0.1,0.6 -0.3,0.8 -0.2,0.2 -0.5,0.3 -0.8,0.3 H 13 C 12.7,22.1 12.4,22 12.2,21.8 12,21.6 11.9,21.3 11.9,21 V 16.3 H 7 C 6.7,16.3 6.4,16.2 6.2,16 6,15.8 5.9,15.5 5.9,15.2 V 12.9 C 5.9,12.6 6,12.3 6.2,12.1 6.4,11.9 6.7,11.8 7,11.8 h 4.7 V 7 C 11.7,6.7 11.8,6.4 12,6.2 12.2,6 12.5,5.9 12.8,5.9 h 2.3 c 0.3,0 0.6,0.1 0.8,0.3 0.2,0.2 0.3,0.5 0.3,0.8 v 4.7 H 21 c 0.3,0 0.6,0.1 0.8,0.3 0.2,0.2 0.3,0.5 0.3,0.8 v 2.4 z"
       id="path4"
       inkscape:connector-curvature="0"
       style="fill:#010101" /></g></svg>