<?xml version="1.0" encoding="UTF-8" standalone="no"?>
<!-- Generator: Adobe Illustrator 23.0.1, SVG Export Plug-In . SVG Version: 6.00 Build 0)  -->

<svg
   xmlns:dc="http://purl.org/dc/elements/1.1/"
   xmlns:cc="http://creativecommons.org/ns#"
   xmlns:rdf="http://www.w3.org/1999/02/22-rdf-syntax-ns#"
   xmlns:svg="http://www.w3.org/2000/svg"
   xmlns="http://www.w3.org/2000/svg"
   xmlns:sodipodi="http://sodipodi.sourceforge.net/DTD/sodipodi-0.dtd"
   xmlns:inkscape="http://www.inkscape.org/namespaces/inkscape"
   version="1.1"
   id="Layer_1"
   x="0px"
   y="0px"
   viewBox="0 0 28 28"
   style="enable-background:new 0 0 28 28;"
   xml:space="preserve"
   sodipodi:docname="icon_api.svg"
   inkscape:version="0.92.2 5c3e80d, 2017-08-06"><metadata
     id="metadata23"><rdf:RDF><cc:Work
         rdf:about=""><dc:format>image/svg+xml</dc:format><dc:type
           rdf:resource="http://purl.org/dc/dcmitype/StillImage" /><dc:title /></cc:Work></rdf:RDF></metadata><defs
     id="defs21" /><sodipodi:namedview
     pagecolor="#ffffff"
     bordercolor="#666666"
     borderopacity="1"
     objecttolerance="10"
     gridtolerance="10"
     guidetolerance="10"
     inkscape:pageopacity="0"
     inkscape:pageshadow="2"
     inkscape:window-width="1495"
     inkscape:window-height="953"
     id="namedview19"
     showgrid="false"
     inkscape:zoom="8.4285714"
     inkscape:cx="-7.3559323"
     inkscape:cy="14"
     inkscape:window-x="1740"
     inkscape:window-y="17"
     inkscape:window-maximized="0"
     inkscape:current-layer="Layer_1" /><style
     type="text/css"
     id="style2">
	.st0{fill:#010101;}
</style><g
     id="g16"
     transform="matrix(0.98305084,0,0,0.98305084,0.23728824,0.23728824)"><path
       class="st0"
       d="M 26.3,1.3 H 1.7 C 0.8,1.3 0,2 0,3 v 22 c 0,0.9 0.8,1.7 1.7,1.7 H 26.3 C 27.2,26.7 28,25.9 28,25 V 3 C 28,2 27.2,1.3 26.3,1.3 Z m -5.1,2.8 c 0,-0.3 0.3,-0.6 0.6,-0.6 h 0.6 c 0.3,0 0.6,0.3 0.6,0.6 v 0.7 c 0,0.3 -0.3,0.6 -0.6,0.6 h -0.6 c -0.3,0 -0.6,-0.3 -0.6,-0.6 z m -2.8,0 c 0,-0.3 0.3,-0.6 0.6,-0.6 h 0.6 c 0.3,0 0.6,0.3 0.6,0.6 v 0.7 c 0,0.3 -0.3,0.6 -0.6,0.6 H 19 C 18.7,5.4 18.4,5.1 18.4,4.8 Z M 26,24.7 H 2 V 7.3 H 26 Z M 26,4.8 c 0,0.3 -0.3,0.6 -0.6,0.6 H 24.8 C 24.5,5.4 24.2,5.1 24.2,4.8 V 4.1 c 0,-0.3 0.3,-0.6 0.6,-0.6 h 0.6 c 0.3,0 0.6,0.3 0.6,0.6 z"
       id="path4"
       inkscape:connector-curvature="0"
       style="fill:#010101" /><path
       class="st0"
       d="m 4.2,20.9 c 0.2,0.2 0.4,0.4 0.7,0.4 v 0 c 0.4,0 0.7,-0.2 0.8,-0.6 l 3,-9.2 C 8.8,11.2 8.7,10.9 8.6,10.7 8.4,10.5 8.2,10.3 7.9,10.3 v 0 c -0.4,0 -0.7,0.2 -0.8,0.6 l -3,9.2 C 3.9,20.4 4,20.7 4.2,20.9 Z"
       id="path6"
       inkscape:connector-curvature="0"
       style="fill:#010101" /><g
       id="g14"><path
         class="st0"
         d="m 12.5,18.5 h -2.3 l -0.3,1 h -2 l 2.3,-7.1 h 2.2 l 2.3,7.1 h -2 z M 12,16.9 11.3,14.4 10.6,16.9 Z"
         id="path8"
         inkscape:connector-curvature="0"
         style="fill:#010101" /><path
         class="st0"
         d="m 19.3,12.7 c 0.4,0.2 0.7,0.5 0.9,0.9 0.2,0.4 0.3,0.8 0.3,1.3 0,0.5 -0.1,0.9 -0.3,1.3 -0.2,0.4 -0.5,0.7 -0.9,0.9 -0.4,0.2 -0.8,0.3 -1.3,0.3 h -0.9 v 2.1 h -1.8 v -7.1 h 1.8 0.9 c 0.5,0 0.9,0.1 1.3,0.3 z m -0.8,2.8 c 0.1,-0.1 0.2,-0.3 0.2,-0.5 0,-0.2 -0.1,-0.4 -0.2,-0.5 -0.1,-0.1 -0.3,-0.2 -0.5,-0.2 h -0.9 v 1.5 H 18 c 0.2,-0.1 0.4,-0.2 0.5,-0.3 z"
         id="path10"
         inkscape:connector-curvature="0"
         style="fill:#010101" /><path
         class="st0"
         d="m 23.1,12.4 v 7.1 h -1.8 v -7.1 z"
         id="path12"
         inkscape:connector-curvature="0"
         style="fill:#010101" /></g></g></svg>