<?xml version="1.0" encoding="UTF-8" standalone="no"?>
<svg
   viewBox="0 0 448 512"
   version="1.1"
   id="svg1"
   sodipodi:docname="key-skeleton.svg"
   inkscape:version="1.4 (e7c3feb1, 2024-10-09)"
   xmlns:inkscape="http://www.inkscape.org/namespaces/inkscape"
   xmlns:sodipodi="http://sodipodi.sourceforge.net/DTD/sodipodi-0.dtd"
   xmlns="http://www.w3.org/2000/svg"
   xmlns:svg="http://www.w3.org/2000/svg">
  <defs
     id="defs1" />
  <sodipodi:namedview
     id="namedview1"
     pagecolor="#ffffff"
     bordercolor="#000000"
     borderopacity="0.25"
     inkscape:showpageshadow="2"
     inkscape:pageopacity="0.0"
     inkscape:pagecheckerboard="0"
     inkscape:deskcolor="#d1d1d1"
     inkscape:zoom="0.40625"
     inkscape:cx="221.53846"
     inkscape:cy="256"
     inkscape:window-width="1152"
     inkscape:window-height="593"
     inkscape:window-x="0"
     inkscape:window-y="25"
     inkscape:window-maximized="0"
     inkscape:current-layer="svg1" />
  <!--! Font Awesome Pro 6.4.2 by @fontawesome - https://fontawesome.com License - https://fontawesome.com/license (Commercial License) Copyright 2023 Fonticons, Inc. -->
  <path
     d="M304 48a96 96 0 1 1 0 192 96 96 0 1 1 0-192zm0 240c79.5 0 144-64.5 144-144S383.5 0 304 0S160 64.5 160 144c0 31.1 9.9 59.9 26.6 83.4L7 407c-9.4 9.4-9.4 24.6 0 33.9l64 64c9.4 9.4 24.6 9.4 33.9 0s9.4-24.6 0-33.9l-47-47L88 393.9l47 47c9.4 9.4 24.6 9.4 33.9 0s9.4-24.6 0-33.9l-47-47 98.6-98.6C244.1 278.1 272.9 288 304 288z"
     id="path1"
     style="fill:#7e488f;fill-opacity:1" />
</svg>
