<?xml version="1.0" encoding="UTF-8" standalone="no"?>
<svg
   viewBox="0 0 640 512"
   version="1.1"
   id="svg1"
   sodipodi:docname="key-skeleton-left-right.svg"
   inkscape:version="1.4 (e7c3feb1, 2024-10-09)"
   xmlns:inkscape="http://www.inkscape.org/namespaces/inkscape"
   xmlns:sodipodi="http://sodipodi.sourceforge.net/DTD/sodipodi-0.dtd"
   xmlns="http://www.w3.org/2000/svg"
   xmlns:svg="http://www.w3.org/2000/svg">
  <defs
     id="defs1" />
  <sodipodi:namedview
     id="namedview1"
     pagecolor="#ffffff"
     bordercolor="#000000"
     borderopacity="0.25"
     inkscape:showpageshadow="2"
     inkscape:pageopacity="0.0"
     inkscape:pagecheckerboard="0"
     inkscape:deskcolor="#d1d1d1"
     inkscape:zoom="0.40625"
     inkscape:cx="320"
     inkscape:cy="252.30769"
     inkscape:window-width="1264"
     inkscape:window-height="578"
     inkscape:window-x="0"
     inkscape:window-y="25"
     inkscape:window-maximized="0"
     inkscape:current-layer="svg1" />
  <!--! Font Awesome Pro 6.4.2 by @fontawesome - https://fontawesome.com License - https://fontawesome.com/license (Commercial License) Copyright 2023 Fonticons, Inc. -->
  <path
     d="M592 128a80 80 0 1 0 -160 0 80 80 0 1 0 160 0zm48 0c0 70.7-57.3 128-128 128c-62.5 0-114.5-44.8-125.8-104H304v48c0 13.3-10.7 24-24 24s-24-10.7-24-24V152H208l0 48c0 13.3-10.7 24-24 24s-24-10.7-24-24l0-72c0-13.3 10.7-24 24-24l202.2 0C397.5 44.8 449.5 0 512 0c70.7 0 128 57.3 128 128zM48 384a80 80 0 1 0 160 0A80 80 0 1 0 48 384zM0 384c0-70.7 57.3-128 128-128c62.5 0 114.5 44.8 125.8 104l82.2 0V312c0-13.3 10.7-24 24-24s24 10.7 24 24v48h48l0-48c0-13.3 10.7-24 24-24s24 10.7 24 24l0 72c0 13.3-10.7 24-24 24H253.8C242.5 467.2 190.5 512 128 512C57.3 512 0 454.7 0 384z"
     id="path1"
     style="fill:#7e488f;fill-opacity:1" />
</svg>
