<?xml version="1.0" encoding="UTF-8" standalone="no"?>
<svg
   xmlns:dc="http://purl.org/dc/elements/1.1/"
   xmlns:cc="http://creativecommons.org/ns#"
   xmlns:rdf="http://www.w3.org/1999/02/22-rdf-syntax-ns#"
   xmlns:svg="http://www.w3.org/2000/svg"
   xmlns="http://www.w3.org/2000/svg"
   xmlns:sodipodi="http://sodipodi.sourceforge.net/DTD/sodipodi-0.dtd"
   xmlns:inkscape="http://www.inkscape.org/namespaces/inkscape"
   inkscape:version="1.0rc1 (09960d6, 2020-04-09)"
   sodipodi:docname="open-preview_white.svg"
   id="svg12"
   version="1.1"
   fill="currentColor"
   viewBox="0 0 16 16"
   height="16"
   width="16">
  <metadata
     id="metadata18">
    <rdf:RDF>
      <cc:Work
         rdf:about="">
        <dc:format>image/svg+xml</dc:format>
        <dc:type
           rdf:resource="http://purl.org/dc/dcmitype/StillImage" />
        <dc:title></dc:title>
      </cc:Work>
    </rdf:RDF>
  </metadata>
  <defs
     id="defs16" />
  <sodipodi:namedview
     inkscape:current-layer="svg12"
     inkscape:window-maximized="0"
     inkscape:window-y="23"
     inkscape:window-x="0"
     inkscape:cy="8"
     inkscape:cx="8"
     inkscape:zoom="20.21875"
     showgrid="false"
     id="namedview14"
     inkscape:window-height="743"
     inkscape:window-width="1225"
     inkscape:pageshadow="2"
     inkscape:pageopacity="0"
     guidetolerance="10"
     gridtolerance="10"
     objecttolerance="10"
     borderopacity="1"
     bordercolor="#666666"
     pagecolor="#ffffff" />
  <path
     style="fill:#cccccc"
     id="path10"
     d="M3 1h11l1 1v5.3a3.21 3.21 0 0 0-1-.3V2H9v10.88L7.88 14H3l-1-1V2l1-1zm0 12h5V2H3v11zm10.379-4.998a2.53 2.53 0 0 0-1.19.348h-.03a2.51 2.51 0 0 0-.799 3.53L9 14.23l.71.71 2.35-2.36c.325.22.7.358 1.09.4a2.47 2.47 0 0 0 1.14-.13 2.51 2.51 0 0 0 1-.63 2.46 2.46 0 0 0 .58-1 2.63 2.63 0 0 0 .07-1.15 2.53 2.53 0 0 0-1.35-1.81 2.53 2.53 0 0 0-1.211-.258zm.24 3.992a1.5 1.5 0 0 1-.979-.244 1.55 1.55 0 0 1-.56-.68 1.49 1.49 0 0 1-.08-.86 1.49 1.49 0 0 1 1.18-1.18 1.49 1.49 0 0 1 .86.08c.276.117.512.311.68.56a1.5 1.5 0 0 1-1.1 2.324z"
     clip-rule="evenodd"
     fill-rule="evenodd" />
</svg>
