<?xml version="1.0" encoding="UTF-8" standalone="no"?>
<svg
   id="Layer_1"
   data-name="Layer 1"
   viewBox="0 0 16 16"
   version="1.1"
   sodipodi:docname="42crunch_icon_audit3x.svg"
   width="16"
   height="16"
   inkscape:version="1.3.2 (091e20e, 2023-11-25)"
   xmlns:inkscape="http://www.inkscape.org/namespaces/inkscape"
   xmlns:sodipodi="http://sodipodi.sourceforge.net/DTD/sodipodi-0.dtd"
   xmlns="http://www.w3.org/2000/svg"
   xmlns:svg="http://www.w3.org/2000/svg"
   xmlns:rdf="http://www.w3.org/1999/02/22-rdf-syntax-ns#"
   xmlns:cc="http://creativecommons.org/ns#"
   xmlns:dc="http://purl.org/dc/elements/1.1/">
  <metadata
     id="metadata25">
    <rdf:RDF>
      <cc:Work
         rdf:about="">
        <dc:format>image/svg+xml</dc:format>
        <dc:type
           rdf:resource="http://purl.org/dc/dcmitype/StillImage" />
        <dc:title>logo_icon</dc:title>
      </cc:Work>
    </rdf:RDF>
  </metadata>
  <sodipodi:namedview
     inkscape:document-rotation="0"
     pagecolor="#ffffff"
     bordercolor="#666666"
     borderopacity="1"
     objecttolerance="10"
     gridtolerance="10"
     guidetolerance="10"
     inkscape:pageopacity="0"
     inkscape:pageshadow="2"
     inkscape:window-width="1504"
     inkscape:window-height="975"
     id="namedview23"
     showgrid="false"
     inkscape:zoom="32"
     inkscape:cx="7.625"
     inkscape:cy="8.3125"
     inkscape:window-x="2259"
     inkscape:window-y="25"
     inkscape:window-maximized="0"
     inkscape:current-layer="Layer_1"
     inkscape:showpageshadow="2"
     inkscape:pagecheckerboard="0"
     inkscape:deskcolor="#d1d1d1"
     showguides="true" />
  <defs
     id="defs12">
    <style
       id="style10">.cls-1{fill:#7e488f;}.cls-2{fill:#fff;}</style>
    <linearGradient
       id="linear-gradient"
       x1="15.88"
       y1="22.4"
       x2="78.669998"
       y2="85.190002"
       gradientUnits="userSpaceOnUse">
      <stop
         offset=".13"
         stop-color="#754695"
         id="stop1" />
      <stop
         offset="1"
         stop-color="#244187"
         id="stop2" />
    </linearGradient>
  </defs>
  <title
     id="title14">logo_icon</title>
  <text
     x="-226.18999"
     y="-297.92401"
     id="text18" />
  <path
     d="m 4.8637792,6.0052079 c 0.791169,-0.664931 1.8430019,-1.1968764 3.1353051,-1.1968764 1.2923054,0 2.3441377,0.5319454 3.1353067,1.1968764 0.791169,0.6649307 1.319838,1.4628473 1.56398,1.994793 -0.244142,0.5319446 -0.772811,1.3298611 -1.56398,1.9947917 -0.791169,0.6649304 -1.8430013,1.1968764 -3.1353067,1.1968764 -1.2923032,0 -2.3441361,-0.531946 -3.1353051,-1.1968764 C 4.0726092,9.329862 3.5439394,8.5319453 3.2997974,8.0000008 3.5439394,7.4680552 4.0726092,6.6701386 4.8637792,6.0052079 Z M 7.9990843,4.2763873 c -1.4832115,0 -2.6708843,0.6117368 -3.5354791,1.3398351 -0.8590887,0.7214503 -1.4336506,1.5858609 -1.7053277,2.1793116 -0.060577,0.1313235 -0.060577,0.2776093 0,0.4089327 0.2716771,0.5934505 0.846239,1.457861 1.7053277,2.1793103 0.8645948,0.728101 2.0522675,1.339836 3.5354791,1.339836 1.4832136,0 2.6708847,-0.611735 3.5354797,-1.339836 0.85909,-0.7231113 1.433652,-1.5858595 1.707163,-2.1793101 0.06057,-0.1313235 0.06057,-0.2776093 0,-0.4089327 C 12.968216,7.2020833 12.393654,6.3376726 11.534564,5.6162224 10.669969,4.8881242 9.4822979,4.2763873 7.9990843,4.2763873 Z M 6.2368515,8.0000009 a 1.7622338,1.5958349 0 1 1 3.5244674,0 1.7622338,1.5958349 0 1 1 -3.5244674,0 z m 4.1118765,0 a 2.3496442,2.1277791 0 1 0 -4.6992871,0 2.3496442,2.1277791 0 1 0 4.6992871,0 z"
     id="path1"
     style="fill:#ffffff;fill-opacity:1;stroke:#ffffff;stroke-width:0.395661;stroke-dasharray:none;stroke-opacity:1" />
  <polygon
     class="cls-1"
     points="87.09,30.81 47.28,7.83 7.47,30.81 7.47,76.78 47.28,99.76 87.09,76.78 "
     id="polygon2"
     style="fill:url(#linear-gradient);stroke-width:0px"
     transform="matrix(0.17350377,0,0,0.17350377,-0.20325825,-1.3336353)" />
  <g
     id="g5"
     transform="matrix(0.95104622,0,0,0.95104622,0.58614299,0.7371816)">
    <path
       class="cls-2"
       d="m 7.1857162,2.5915818 c -1.7704567,0 -3.2109645,1.4405079 -3.2109645,3.2109644 0,1.7704567 1.3660683,3.1304893 3.0701327,3.204929 v 4.8687558 c 0,0.07846 0.062368,0.140831 0.1408318,0.140831 0.078463,0 0.1408318,-0.06237 0.1408318,-0.140831 V 9.0074752 c 1.7060763,-0.07444 3.070133,-1.4807457 3.070133,-3.204929 0,-1.7241832 -1.4405081,-3.2109644 -3.2109648,-3.2109644 z m 0,6.1402654 c -1.6155416,0 -2.9293009,-1.3137592 -2.9293009,-2.929301 0,-1.6155415 1.3137593,-2.929301 2.9293009,-2.929301 1.6155417,0 2.9293018,1.3137595 2.9293018,2.929301 0,1.6155418 -1.3137601,2.929301 -2.9293018,2.929301 z"
       id="path2"
       style="fill:#ffffff;stroke:#ffffff;stroke-width:0.6;stroke-dasharray:none;stroke-opacity:1" />
    <g
       id="g4"
       transform="translate(-0.015625,-0.125)">
      <path
         class="cls-2"
         d="M 5.4960508,5.892333 6.2924331,5.1063609 c 0.046846,-0.046846 0.048581,-0.1231876 0,-0.1717687 -0.048581,-0.048581 -0.1231877,-0.048581 -0.1717688,0 L 5.2375302,5.8055811 c -0.022556,0.022555 -0.036436,0.053786 -0.036436,0.086752 0,0.032966 0.012145,0.064196 0.036436,0.086752 l 0.8831341,0.8831342 c 0.024291,0.024291 0.055521,0.036436 0.086752,0.036436 0.031231,0 0.062461,-0.012145 0.086752,-0.036436 0.046846,-0.046846 0.046846,-0.1249227 0,-0.1717688 L 5.4977858,5.894068 Z"
         id="path3"
         style="fill:#ffffff;stroke:#ffffff;stroke-width:0.3;stroke-dasharray:none;stroke-opacity:1" />
      <path
         class="cls-2"
         d="m 8.4445041,4.9184991 c -0.046846,-0.046846 -0.1249227,-0.046846 -0.1717687,0 -0.046846,0.046846 -0.046846,0.1249228 0,0.1717688 L 9.0691177,5.8866502 8.2727354,6.6726223 c -0.046846,0.046846 -0.048581,0.1231876 0,0.1717687 0.024291,0.024291 0.055521,0.036436 0.086752,0.036436 0.031231,0 0.062461,-0.012145 0.085017,-0.034701 L 9.3276383,5.9751371 c 0.022556,-0.022555 0.036436,-0.053786 0.036436,-0.086752 0,-0.032966 -0.012145,-0.064196 -0.036436,-0.086752 z"
         id="path4"
         style="fill:#ffffff;stroke:#ffffff;stroke-width:0.3;stroke-dasharray:none;stroke-opacity:1" />
      <path
         class="cls-2"
         d="m 7.5696527,4.8738659 c -0.064196,-0.019085 -0.1318629,0.01735 -0.1509483,0.081547 l -0.5413318,1.794029 c -0.019085,0.064196 0.01735,0.1318629 0.081547,0.1509483 0.012145,0.00347 0.024291,0.00521 0.034701,0.00521 0.052051,0 0.1006322,-0.034701 0.1162475,-0.086752 l 0.5413314,-1.794034 c 0.019085,-0.064196 -0.01735,-0.1318629 -0.081547,-0.1509483 z"
         id="path5"
         style="fill:#ffffff;stroke:#ffffff;stroke-width:0.3;stroke-dasharray:none;stroke-opacity:1" />
    </g>
  </g>
  <g
     id="g2"
     transform="matrix(1.5335698,0,0,1.5335698,-4.6474104,-4.1422354)"
     style="stroke:#ffffff;stroke-opacity:1;stroke-width:0.06520734;stroke-dasharray:none">
    <path
       class="cls-2"
       d="m 12.15715,6.3976927 h -1.530303 c -0.06767,0 -0.121453,0.053786 -0.121453,0.1214526 0,0.067667 0.05379,0.1214527 0.121453,0.1214527 h 1.530303 c 0.06767,0 0.121453,-0.053786 0.121453,-0.1214527 0,-0.067666 -0.05379,-0.1214526 -0.121453,-0.1214526 z"
       id="path6"
       style="fill:#ffffff;stroke-width:0.06520734;stroke:#ffffff;stroke-opacity:1;stroke-dasharray:none" />
    <path
       class="cls-2"
       d="m 11.601938,7.0518019 h -0.973356 c -0.06767,0 -0.121453,0.053786 -0.121453,0.1214526 0,0.067667 0.05379,0.1214527 0.121453,0.1214527 h 0.973356 c 0.06767,0 0.121453,-0.053786 0.121453,-0.1214527 0,-0.067666 -0.05379,-0.1214526 -0.121453,-0.1214526 z"
       id="path7"
       style="fill:#ffffff;stroke-width:0.06520734;stroke:#ffffff;stroke-opacity:1;stroke-dasharray:none" />
  </g>
  <g
     id="g1"
     transform="matrix(1.5335698,0,0,1.5335698,-4.5737548,-5.3225622)"
     style="stroke:#ffffff;stroke-opacity:1;stroke-width:0.06520734;stroke-dasharray:none">
    <path
       class="cls-2"
       d="m 6.065433,9.9840156 c 0.067666,0 0.1214526,-0.053786 0.1214526,-0.1214526 0,-0.067666 -0.053786,-0.1214527 -0.1214526,-0.1214527 H 4.8439664 c -0.067667,0 -0.1214526,0.053786 -0.1214526,0.1214527 0,0.067666 0.053786,0.1214526 0.1214526,0.1214526 z"
       id="path8"
       style="fill:#ffffff;stroke-width:0.06520734;stroke:#ffffff;stroke-opacity:1;stroke-dasharray:none" />
    <path
       class="cls-2"
       d="M 6.6761662,11.047594 H 5.4546997 c -0.067666,0 -0.1214526,0.05379 -0.1214526,0.121452 0,0.06767 0.053786,0.121453 0.1214526,0.121453 h 1.2214665 c 0.067666,0 0.1214527,-0.05379 0.1214527,-0.121453 0,-0.06767 -0.053786,-0.121452 -0.1214527,-0.121452 z"
       id="path9"
       style="fill:#ffffff;stroke-width:0.06520734;stroke:#ffffff;stroke-opacity:1;stroke-dasharray:none" />
    <path
       class="cls-2"
       d="M 6.8548751,10.39522 H 4.5351297 c -0.067666,0 -0.1214526,0.05379 -0.1214526,0.121452 0,0.06767 0.053786,0.121453 0.1214526,0.121453 h 2.3197454 c 0.067666,0 0.1214527,-0.05379 0.1214527,-0.121453 0,-0.06767 -0.053786,-0.121452 -0.1214527,-0.121452 z"
       id="path10"
       style="fill:#ffffff;stroke-width:0.06520734;stroke:#ffffff;stroke-opacity:1;stroke-dasharray:none" />
  </g>
</svg>
