<?xml version="1.0" encoding="UTF-8" standalone="no"?>
<svg
   id="Layer_1"
   data-name="Layer 1"
   viewBox="0 0 16 16"
   version="1.1"
   sodipodi:docname="42crunch_icon_scan3x.svg"
   width="16"
   height="16"
   inkscape:version="1.3.2 (091e20e, 2023-11-25)"
   xmlns:inkscape="http://www.inkscape.org/namespaces/inkscape"
   xmlns:sodipodi="http://sodipodi.sourceforge.net/DTD/sodipodi-0.dtd"
   xmlns="http://www.w3.org/2000/svg"
   xmlns:svg="http://www.w3.org/2000/svg"
   xmlns:rdf="http://www.w3.org/1999/02/22-rdf-syntax-ns#"
   xmlns:cc="http://creativecommons.org/ns#"
   xmlns:dc="http://purl.org/dc/elements/1.1/">
  <metadata
     id="metadata25">
    <rdf:RDF>
      <cc:Work
         rdf:about="">
        <dc:format>image/svg+xml</dc:format>
        <dc:type
           rdf:resource="http://purl.org/dc/dcmitype/StillImage" />
        <dc:title>logo_icon</dc:title>
      </cc:Work>
    </rdf:RDF>
  </metadata>
  <sodipodi:namedview
     inkscape:document-rotation="0"
     pagecolor="#ffffff"
     bordercolor="#666666"
     borderopacity="1"
     objecttolerance="10"
     gridtolerance="10"
     guidetolerance="10"
     inkscape:pageopacity="0"
     inkscape:pageshadow="2"
     inkscape:window-width="1440"
     inkscape:window-height="855"
     id="namedview23"
     showgrid="false"
     inkscape:zoom="22.627417"
     inkscape:cx="5.4358834"
     inkscape:cy="10.871767"
     inkscape:window-x="2233"
     inkscape:window-y="49"
     inkscape:window-maximized="0"
     inkscape:current-layer="Layer_1"
     inkscape:showpageshadow="2"
     inkscape:pagecheckerboard="0"
     inkscape:deskcolor="#d1d1d1" />
  <defs
     id="defs12">
    <inkscape:path-effect
       effect="powerstroke"
       id="path-effect1"
       is_visible="true"
       lpeversion="1.3"
       scale_width="1"
       interpolator_type="CentripetalCatmullRom"
       interpolator_beta="1"
       start_linecap_type="zerowidth"
       end_linecap_type="zerowidth"
       offset_points="9.5,0 | 28,0"
       linejoin_type="round"
       miter_limit="4"
       not_jump="false"
       sort_points="true"
       message="&lt;b&gt;Ctrl + click&lt;/b&gt; on existing node and move it" />
    <style
       id="style10">.cls-1{fill:#7e488f;}.cls-2{fill:#fff;}</style>
    <linearGradient
       id="linear-gradient"
       x1="15.88"
       y1="22.4"
       x2="78.669998"
       y2="85.190002"
       gradientUnits="userSpaceOnUse">
      <stop
         offset=".13"
         stop-color="#754695"
         id="stop1" />
      <stop
         offset="1"
         stop-color="#244187"
         id="stop2" />
    </linearGradient>
    <linearGradient
       id="linear-gradient-7"
       x1="15.88"
       y1="22.4"
       x2="78.669998"
       y2="85.190002"
       gradientUnits="userSpaceOnUse">
      <stop
         offset=".13"
         stop-color="#754695"
         id="stop1-0" />
      <stop
         offset="1"
         stop-color="#244187"
         id="stop2-3" />
    </linearGradient>
    <inkscape:path-effect
       effect="fill_between_many"
       method="bsplinespiro"
       autoreverse="false"
       close="false"
       join="false"
       linkedpaths="#path2,0,1"
       id="path-effect2" />
  </defs>
  <title
     id="title14">logo_icon</title>
  <text
     x="-226.18999"
     y="-297.92401"
     id="text18" />
  <polygon
     class="cls-1"
     points="87.09,30.81 47.28,7.83 7.47,30.81 7.47,76.78 47.28,99.76 87.09,76.78 "
     id="polygon2"
     style="fill:url(#linear-gradient-7);stroke-width:0px"
     transform="matrix(0.17279152,0,0,0.17279152,-0.16958307,-1.2953198)" />
  <path
     class="cls-2"
     d="m 69.54,55.88 0.12,-0.25 c 0.05,-0.1 0.07,-0.2 0.07,-0.31 0,-0.67 -2.5,-5.28 -3.82,-6.84 -2.77,-3.29 -5.77,-5.67 -9.17,-7.29 -3.05,-1.45 -6.22,-2.18 -9.41,-2.18 -0.04,0 -0.07,0 -0.1,0 -3.2,0 -6.37,0.73 -9.41,2.18 -3.4,1.61 -6.4,4 -9.17,7.29 -1.31,1.56 -3.82,6.17 -3.82,6.84 0,0.11 0.02,0.21 0.07,0.31 l 0.12,0.25 c 0.1,0.21 0.2,0.43 0.32,0.63 2.26,3.89 5.1,7.11 8.44,9.57 3.67,2.7 7.68,4.23 11.94,4.55 0.52,0.04 1.04,0.06 1.56,0.06 0.52,0 1.03,-0.02 1.56,-0.06 4.26,-0.32 8.28,-1.85 11.94,-4.55 3.34,-2.46 6.18,-5.68 8.44,-9.57 0.12,-0.2 0.22,-0.42 0.32,-0.63 z m -1.27,-0.6 c -0.08,0.18 -0.17,0.36 -0.27,0.53 -2.2,3.77 -4.83,6.77 -8.06,9.15 -3.45,2.54 -7.22,3.98 -11.22,4.28 -0.49,0.04 -0.97,0.05 -1.45,0.05 -0.48,0 -0.97,-0.02 -1.46,-0.05 -3.99,-0.3 -7.77,-1.74 -11.22,-4.28 -3.23,-2.38 -5.86,-5.37 -8.06,-9.15 -0.1,-0.17 -0.18,-0.35 -0.27,-0.53 v 0 c 0.39,-0.94 2.24,-4.47 3.43,-5.89 2.64,-3.13 5.49,-5.4 8.7,-6.92 2.86,-1.36 5.83,-2.04 8.82,-2.04 h 0.1 c 2.99,0 5.96,0.69 8.82,2.04 3.21,1.52 6.06,3.79 8.7,6.92 1.2,1.42 3.04,4.95 3.43,5.88 v 0 z"
     id="path2"
     style="fill:#ffffff;fill-rule:nonzero;stroke:#ffffff;stroke-width:2.581389;stroke-dasharray:none;stroke-opacity:1"
     inkscape:linked-fill="path8"
     transform="matrix(0.19369417,0,0,0.19369417,-1.1568919,-2.6260622)" />
  <path
     class="cls-2"
     d="M 8.0009685,6.7564834 C 7.3152911,6.7564834 6.7574519,7.3143226 6.7574519,8 c 0,0.6856773 0.5578392,1.2435165 1.2435166,1.2435165 0.6856773,0 1.2435165,-0.5578392 1.2435165,-1.2435165 0,-0.6856774 -0.5578392,-1.2435166 -1.2435165,-1.2435166 z m 0,2.2158613 C 7.4644356,8.9723447 7.0286237,8.5365328 7.0286237,8 c 0,-0.5365329 0.4358119,-0.9723448 0.9723448,-0.9723448 0.5365328,0 0.9723447,0.4358119 0.9723447,0.9723448 0,0.5365328 -0.4358119,0.9723447 -0.9723447,0.9723447 z"
     id="path3"
     style="fill:#ffffff;fill-opacity:1;stroke:#ffffff;stroke-width:0.5;stroke-dasharray:none;stroke-opacity:1" />
  <path
     class="cls-2"
     d="m 3.6434975,4.8561879 c 0.070223,0 0.1260405,-0.055818 0.1260405,-0.1260405 V 4.2890052 h 0.4411422 c 0.070222,0 0.1260404,-0.055818 0.1260404,-0.1260404 0,-0.070223 -0.055818,-0.1260407 -0.1260404,-0.1260407 H 3.6434975 c -0.070223,0 -0.1260406,0.055818 -0.1260406,0.1260407 v 0.5671826 c 0,0.070222 0.055818,0.1260405 0.1260406,0.1260405 z"
     id="path4"
     style="fill:#ffffff;stroke:#ffffff;stroke-width:0.371841;stroke-dasharray:none;stroke-opacity:1" />
  <path
     class="cls-2"
     d="M 12.356503,4.002713 H 11.78932 c -0.07022,0 -0.126041,0.055818 -0.126041,0.1260407 0,0.070223 0.05582,0.1260405 0.126041,0.1260405 h 0.441142 V 4.688734 c 0,0.070223 0.05582,0.1260405 0.126041,0.1260405 0.07022,0 0.12604,-0.055818 0.12604,-0.1260405 V 4.1287537 c 0,-0.070223 -0.05582,-0.1260407 -0.12604,-0.1260407 z"
     id="path5"
     style="fill:#ffffff;stroke:#ffffff;stroke-width:0.371841;stroke-dasharray:none;stroke-opacity:1" />
  <path
     class="cls-2"
     d="m 12.356503,11.143812 c -0.07022,0 -0.126041,0.05582 -0.126041,0.126041 v 0.441142 H 11.78932 c -0.07022,0 -0.126041,0.05582 -0.126041,0.12604 0,0.07022 0.05582,0.126041 0.126041,0.126041 h 0.567183 c 0.07022,0 0.12604,-0.05582 0.12604,-0.126041 v -0.567182 c 0,-0.07022 -0.05582,-0.126041 -0.12604,-0.126041 z"
     id="path6"
     style="fill:#ffffff;stroke:#ffffff;stroke-width:0.371841;stroke-dasharray:none;stroke-opacity:1" />
  <path
     class="cls-2"
     d="M 4.2106802,11.745206 H 3.769538 v -0.43394 c 0,-0.07022 -0.055818,-0.126041 -0.1260405,-0.126041 -0.070223,0 -0.1260406,0.05582 -0.1260406,0.126041 v 0.55998 c 0,0.07022 0.055818,0.126041 0.1260406,0.126041 h 0.5671827 c 0.070222,0 0.1260404,-0.05582 0.1260404,-0.126041 0,-0.07022 -0.055818,-0.12604 -0.1260404,-0.12604 z"
     id="path7"
     style="fill:#ffffff;stroke:#ffffff;stroke-width:0.371841;stroke-dasharray:none;stroke-opacity:1" />
</svg>
