<?xml version="1.0" encoding="UTF-8"?>
<svg width="28" height="28" data-name="Layer 1" version="1.1" viewBox="0 0 28 28" xmlns="http://www.w3.org/2000/svg">
 <defs>
  <style>.cls-1{fill:#7e488f;}.cls-2{fill:#fff;}</style>
 </defs>
 <title>logo_icon</title>
 <path d="m14.01-0.023438-3.2461 1.8594c-1.7851 1.0234-4.5213 2.6-6.082 3.502l-2.8379 1.6387-0.017578 7-0.015625 6.998 6.1055 3.5254 6.1035 3.5234 0.25-0.13867c0.13679-0.076878 2.8677-1.6523 6.0684-3.5l5.8184-3.3594 0.017578-7.0332 0.015625-7.0332-2.2734-1.3125c-4.479-2.5858-9.4372-5.4321-9.6699-5.5508l-0.23633-0.11914zm-5.2637 7.2383h3.1133c0.52482 0 1.0291 0.2068 1.4004 0.57812l0.70312 0.70508c0.26523 0.26523 0.62497 0.41406 1.002 0.41406h3.1172c1.0888 0 1.9785 0.88975 1.9785 1.9785v1.1309h-1.4102v-1.1309c0-0.31793-0.25043-0.56641-0.56836-0.56641h-3.1172c-0.75064 0-1.4679-0.29802-1.998-0.82813l-0.70312-0.70312c-0.10719-0.10719-0.24996-0.16602-0.40039-0.16602h-3.1172c-0.31793 0-0.56836 0.24848-0.56836 0.56641v6.1484l0.82227-2.0566c0.23606-0.59176 0.80963-0.97852 1.4434-0.97852h10.609c0.51491 0 1.0002 0.25514 1.2891 0.68359 0.28772 0.42673 0.34699 0.96881 0.15625 1.4473l-1.6992 4.2441c-0.23606 0.59176-0.80962 0.97852-1.4434 0.97852h-2.1211-8.4883c-1.0888 0-1.9785-0.88974-1.9785-1.9785v-8.4883c0-1.0888 0.88975-1.9785 1.9785-1.9785zm1.6992 6.5039c-0.061382 0-0.11132 0.035234-0.13281 0.089844l-1.6973 4.2461h-0.0019532c-0.016026 0.039265-0.010426 0.092275 0.017578 0.13476 0.023172 0.03516 0.066669 0.058594 0.11523 0.058594h8.4883 2.1211c0.056979 0 0.10939-0.035264 0.13086-0.089844l1.6992-4.2461c0.01603-0.039275 0.010422-0.092285-0.017578-0.13476-0.023175-0.03516-0.066665-0.058594-0.11524-0.058594h-10.607z"/>
</svg>
