<?xml version="1.0" encoding="UTF-8" standalone="no"?>
<svg
   xmlns:dc="http://purl.org/dc/elements/1.1/"
   xmlns:cc="http://creativecommons.org/ns#"
   xmlns:rdf="http://www.w3.org/1999/02/22-rdf-syntax-ns#"
   xmlns:svg="http://www.w3.org/2000/svg"
   xmlns="http://www.w3.org/2000/svg"
   xmlns:sodipodi="http://sodipodi.sourceforge.net/DTD/sodipodi-0.dtd"
   xmlns:inkscape="http://www.inkscape.org/namespaces/inkscape"
   id="Layer_1"
   data-name="Layer 1"
   viewBox="0 0 28 28"
   version="1.1"
   sodipodi:docname="collections_icon.svg"
   width="28"
   height="28"
   inkscape:version="1.0.2 (e86c8708, 2021-01-15)">
  <metadata
     id="metadata25">
    <rdf:RDF>
      <cc:Work
         rdf:about="">
        <dc:format>image/svg+xml</dc:format>
        <dc:type
           rdf:resource="http://purl.org/dc/dcmitype/StillImage" />
        <dc:title>logo_icon</dc:title>
      </cc:Work>
    </rdf:RDF>
  </metadata>
  <sodipodi:namedview
     inkscape:document-rotation="0"
     pagecolor="#ffffff"
     bordercolor="#666666"
     borderopacity="1"
     objecttolerance="10"
     gridtolerance="10"
     guidetolerance="10"
     inkscape:pageopacity="0"
     inkscape:pageshadow="2"
     inkscape:window-width="1440"
     inkscape:window-height="855"
     id="namedview23"
     showgrid="false"
     inkscape:zoom="16"
     inkscape:cx="9.0963017"
     inkscape:cy="13.403742"
     inkscape:window-x="0"
     inkscape:window-y="23"
     inkscape:window-maximized="0"
     inkscape:current-layer="Layer_1" />
  <defs
     id="defs12">
    <style
       id="style10">.cls-1{fill:#7e488f;}.cls-2{fill:#fff;}</style>
  </defs>
  <title
     id="title14">logo_icon</title>
  <text
     x="-226.18999"
     y="-297.92401"
     id="text18" />
  <g
     id="g1776"
     transform="matrix(1.0318766,0,0,1.0318766,-0.44627214,-0.44627221)">
    <path
       id="path20"
       style="fill:none;stroke-width:0.162914"
       d="M 11.724088,15.401914 H 8.7606787 l 2.9634093,-3.634616 v 3.634616 0" />
    <path
       id="path1734"
       style="fill:none;stroke-width:0.162914"
       d="m 20.788636,20.775182 v -1.422596 c -0.436611,0.388821 -1.046453,0.583232 -1.829527,0.583232 a 3.0741913,3.0741913 0 0 1 -0.917207,-0.136848 2.6946012,2.6946012 0 0 1 -0.799909,-0.400768 1.8490764,1.8490764 0 0 1 -0.571829,-0.70379 2.2905739,2.2905739 0 0 1 -0.213418,-1.008439 c 0,-0.296246 0.03382,-0.565645 0.101464,-0.808196" />
    <path
       id="path1732"
       style="fill:none;stroke-width:0.162914"
       d="m 20.783096,20.84427 a 4.6560884,4.6560884 0 0 0 0.0055,-0.0026 v -0.06644" />
    <path
       id="path1730"
       style="fill:none;stroke-width:0.162914"
       d="M 19.899053,21.161094 A 4.6560884,4.6560884 0 0 0 20.783096,20.84427" />
    <path
       id="path1728"
       style="fill:none;stroke-width:0.162914"
       d="m 17.845875,21.210422 a 4.3986839,4.3986839 0 0 0 0.886783,0.08736 4.6560884,4.6560884 0 0 0 1.166395,-0.136687" />
    <path
       id="path1726"
       style="fill:none;stroke-width:0.162914"
       d="m 17.844007,21.210044 a 4.3986839,4.3986839 0 0 0 0.0019,3.78e-4" />
    <path
       id="path1724"
       style="fill:none;stroke-width:0.162914"
       d="m 17.352297,21.080328 a 4.3986839,4.3986839 0 0 0 0.49171,0.129716" />
    <path
       id="path1722"
       style="fill:none;stroke-width:0.162914"
       d="m 15.982858,20.312445 a 2.9845885,2.9845885 0 0 0 0.131769,0.110487 4.1103258,4.1103258 0 0 0 1.220227,0.651657 4.3986839,4.3986839 0 0 0 0.01744,0.0057" />
    <path
       id="path1720"
       style="fill:none;stroke-width:0.162914"
       d="m 15.761548,20.094083 a 2.9845885,2.9845885 0 0 0 0.22131,0.218362" />
    <path
       id="path1718"
       style="fill:none;stroke-width:0.162914"
       d="m 15.248259,19.316093 a 2.9845885,2.9845885 0 0 0 0.513289,0.77799" />
    <path
       id="path1716"
       style="fill:none;stroke-width:0.162914"
       d="m 14.99968,18.582006 a 3.7470271,3.7470271 0 0 0 0.233581,0.700526 2.9845885,2.9845885 0 0 0 0.015,0.03356" />
    <path
       id="path1714"
       style="fill:none;stroke-width:0.162914"
       d="m 14.907609,17.831751 a 3.7470271,3.7470271 0 0 0 0.09207,0.750255" />
    <path
       id="path1712"
       style="fill:none;stroke-width:0.162914"
       d="m 14.92477,17.226368 a 4.1021801,4.1021801 0 0 0 -0.01734,0.456347 3.7470271,3.7470271 0 0 0 1.77e-4,0.149036" />
    <path
       id="path1710"
       style="fill:none;stroke-width:0.162914"
       d="m 15.247857,15.97297 a 3.4342318,3.4342318 0 0 0 -0.0146,0.03336 4.1021801,4.1021801 0 0 0 -0.308491,1.220042" />
    <path
       id="path1708"
       style="fill:none;stroke-width:0.162914"
       d="M 14.006057,8.2994161 C 14.538784,8.0698754 15.080356,7.955105 15.630771,7.955105 a 2.2319248,2.2319248 0 0 1 1.21697,0.2818416 0.91720706,0.91720706 0 0 1 0.434981,0.8145711 1.466228,1.466228 0 0 1 -0.488743,1.0638303 9.3089185,9.3089185 0 0 1 -1.334268,0.863445 c -0.687498,0.418147 -1.156148,0.72171 -1.405949,0.91069 a 3.5841128,3.5841128 0 0 0 -0.993777,1.15832 V 9.9996784 H 11.627969 L 7.2113644,15.432868 v 1.187644 h 4.5127236 v 1.700827 h 1.352188 v -1.702456 h 0.01792 v -1.216969 h -0.01792 v -0.229709 h 2.668535 a 3.4342318,3.4342318 0 0 0 -0.496954,0.800765" />
    <path
       id="path1706"
       style="fill:none;stroke-width:0.162914"
       d="m 13.298847,8.6748395 c 0.233979,-0.1479511 0.469715,-0.2730923 0.70721,-0.3754234" />
    <path
       id="path1704"
       style="fill:none;stroke-width:0.162914"
       d="m 13.026298,8.8580623 c 0.09058,-0.064533 0.181433,-0.1256077 0.272549,-0.1832228" />
    <path
       id="path1702"
       style="fill:none;stroke-width:0.162914"
       d="m 12.988303,8.6057844 v 0.2795608 c 0.01266,-0.00916 0.02533,-0.018256 0.038,-0.027283" />
    <path
       id="path1700"
       style="fill:none;stroke-width:0.162914"
       d="M 14.747924,6.7984262 A 4.7913072,4.7913072 0 0 0 12.988303,7.5461903 V 8.6057844" />
    <path
       id="path1698"
       style="fill:none;stroke-width:0.162914"
       d="M 15.08412,6.74231 A 4.7913072,4.7913072 0 0 0 14.747924,6.798426" />
    <path
       id="path1696"
       style="fill:none;stroke-width:0.162914"
       d="M 17.526481,7.0881059 C 17.040648,6.8308984 16.451103,6.7022946 15.757844,6.7022946 A 4.7913072,4.7913072 0 0 0 15.08412,6.74231" />
    <path
       id="path1694"
       style="fill:none;stroke-width:0.162914"
       d="M 18.127632,7.5278567 C 18.051409,7.4497411 17.967441,7.3765663 17.875729,7.3083325 17.765968,7.2266709 17.649552,7.1532621 17.526481,7.0881059" />
    <path
       id="path1692"
       style="fill:none;stroke-width:0.162914"
       d="M 18.690296,9.0349784 C 18.689269,8.4135996 18.501715,7.9112258 18.127632,7.5278567" />
    <path
       id="path1690"
       style="fill:none;stroke-width:0.162914"
       d="M 18.558792,9.8421982 A 2.2416997,2.2416997 0 0 0 18.6903,9.0401107 c 0,-0.00171 -1e-6,-0.00342 -4e-6,-0.00513" />
    <path
       id="path1688"
       style="fill:none;stroke-width:0.162914"
       d="M 18.382024,10.219712 A 2.2416997,2.2416997 0 0 0 18.558792,9.8421982" />
    <path
       id="path1686"
       style="fill:none;stroke-width:0.162914"
       d="m 16.526472,11.837978 a 7.6390478,7.6390478 0 0 0 1.541496,-1.202937 2.2416997,2.2416997 0 0 0 0.314056,-0.415329" />
    <path
       id="path1684"
       style="fill:none;stroke-width:0.162914"
       d="m 17.632488,13.924247 -3.357163,0.0098 a 0.88462421,0.88462421 0 0 1 0.03584,-0.250888 2.0445735,2.0445735 0 0 1 0.0782,-0.224822 0.93512762,0.93512762 0 0 1 0.140106,-0.218305 c 0.06517,-0.07928 0.119471,-0.146079 0.162914,-0.200384 a 1.7920564,1.7920564 0 0 1 0.224822,-0.200385 2.8917274,2.8917274 0 0 1 0.246001,-0.175947 l 0.288358,-0.175947 0.286729,-0.175948 0.325828,-0.195497 0.307908,-0.18898 a 7.6390478,7.6390478 0 0 0 0.154441,-0.08897" />
    <path
       id="path1682"
       style="fill:none;stroke-width:0.162914"
       d="m 19.912331,14.069173 a 4.4557039,4.4557039 0 0 0 -1.176415,-0.148149 v 0 l -1.103428,0.0032" />
    <path
       id="path1680"
       style="fill:none;stroke-width:0.162914"
       d="m 20.733246,15.75945 -1e-6,-1.383896 a 4.4557039,4.4557039 0 0 0 -0.820914,-0.306381" />
    <path
       id="path1678"
       style="fill:none;stroke-width:0.162914"
       d="m 20.646689,15.761566 a 2.807012,2.807012 0 0 1 0.08656,0.0623 l 1e-6,-0.06441" />
    <path
       id="path1676"
       style="fill:none;stroke-width:0.162914"
       d="m 16.807769,16.311565 c 0.104551,-0.163186 0.232459,-0.307833 0.383721,-0.433941 a 2.6685349,2.6685349 0 0 1 1.767619,-0.612558 2.807012,2.807012 0 0 1 1.68758,0.4965" />
    <path
       id="path1674"
       style="fill:none;stroke-width:0.162914"
       d="m 16.55821,16.877777 c 0.05817,-0.208593 0.141359,-0.39733 0.249559,-0.566212" />
    <path
       style="fill:#7f488e;stroke-width:0.0625"
       d="m 8.0763565,24.215334 -5.920123,-3.417791 1.2e-4,-6.814571 1.2e-4,-6.8145727 5.890505,-3.4008871 C 11.286757,1.8970243 13.965609,0.36673735 13.999984,0.36687465 c 0.03438,1.375e-4 2.713007,1.53053655 5.952517,3.40088715 l 5.890016,3.4006375 6.25e-4,6.8135327 6.24e-4,6.813533 -5.734375,3.308973 c -3.153905,1.819934 -5.819537,3.358408 -5.923625,3.41883 L 13.996514,27.633125 8.0763905,24.215334 Z M 20.023209,21.135359 c 0.2534,-0.07032 0.541681,-0.169724 0.640625,-0.220891 l 0.1799,-0.09303 v -0.748395 c 0,-0.411617 -0.0216,-0.748395 -0.04799,-0.748395 -0.0264,0 -0.146696,0.06707 -0.267334,0.149047 -0.722611,0.491027 -1.989141,0.540098 -2.866752,0.111072 -0.879622,-0.430008 -1.328279,-1.382034 -1.136827,-2.412285 0.139984,-0.753289 0.514297,-1.254769 1.19189,-1.596817 0.789177,-0.398375 1.752953,-0.393749 2.561622,0.0123 0.225029,0.11299 0.430236,0.214811 0.456018,0.226269 0.02578,0.01146 0.04687,-0.315956 0.04687,-0.727589 v -0.748423 l -0.265622,-0.107285 c -0.765852,-0.309326 -0.691485,-0.302164 -3.525498,-0.339501 l -2.697372,-0.03554 0.08068,-0.234502 c 0.179545,-0.521883 0.370146,-0.678225 2.181769,-1.789622 1.63154,-1.000918 2.23213,-1.8388916 2.144873,-2.9926326 -0.0788,-1.041941 -0.710145,-1.7527156 -1.8117,-2.0396337 -1.135264,-0.2956988 -2.471608,-0.1170569 -3.547044,0.4741669 l -0.372579,0.2048268 v 0.704323 c 0,0.387378 0.01244,0.704324 0.02764,0.704324 0.0152,0 0.205046,-0.111168 0.421875,-0.247039 0.758929,-0.475567 1.81079,-0.748472 2.545434,-0.660412 0.493596,0.05917 0.973803,0.290662 1.128176,0.543867 0.160843,0.263815 0.164809,0.742773 0.009,1.085822 -0.160904,0.354247 -0.504626,0.6270346 -1.713509,1.3598896 -1.248746,0.757021 -1.647495,1.058933 -1.999368,1.513816 l -0.26299,0.339982 -0.01678,-1.436713 -0.01678,-1.4367126 h -0.742474 -0.742475 l -2.2243925,2.7343746 -2.224393,2.734375 -7.31e-4,0.609375 -7.31e-4,0.609375 h 2.28125 2.2812505 v 0.84375 0.84375 h 0.6875 0.6875 v -1.5625 -1.5625 h 1.285505 1.285507 l -0.121241,0.171875 c -0.435316,0.617121 -0.64751,1.369953 -0.6474,2.296875 6.2e-5,0.739901 0.07536,1.091158 0.365958,1.707651 0.581322,1.233268 2.059865,1.997723 3.706671,1.916467 0.326561,-0.01611 0.801076,-0.08683 1.054475,-0.157158 z"
       id="path1632" />
    <path
       style="fill:#000000;stroke-width:0.0625"
       d="m 8.8463017,15.378663 c 0,-0.01379 0.646875,-0.818132 1.4375003,-1.787421 l 1.4375,-1.762343 v 1.787422 1.787421 h -1.4375 c -0.7906253,0 -1.4375003,-0.01128 -1.4375003,-0.02508 z"
       id="path1636" />
    <path
       style="fill:#000000;stroke-width:0.0625"
       d="m 8.0746878,24.172586 -5.9164389,-3.415511 0.015901,-6.782956 0.015901,-6.7829551 2.75,-1.5892741 c 1.5125,-0.8741007 4.1654237,-2.4007492 5.8953851,-3.3925523 l 3.145387,-1.80327837 0.229638,0.11715278 C 14.436,0.63827307 19.240333,3.3959715 23.580952,5.9018956 l 2.2034,1.2720658 -0.0159,6.8158976 -0.0159,6.815897 -5.639691,3.255709 c -3.101829,1.79064 -5.74815,3.316667 -5.880712,3.391171 l -0.241022,0.135462 z M 19.940052,21.183593 c 0.20625,-0.05308 0.494531,-0.141584 0.640625,-0.196672 l 0.265625,-0.100162 v -0.804008 c 0,-0.442205 -0.01449,-0.804009 -0.0322,-0.804009 -0.01771,0 -0.189494,0.08877 -0.381746,0.197273 -1.092107,0.616348 -2.646013,0.424079 -3.388339,-0.419248 -0.386391,-0.438964 -0.527796,-0.875676 -0.497333,-1.535952 0.04387,-0.950863 0.443609,-1.552669 1.296654,-1.952105 0.339444,-0.158944 0.506236,-0.195872 0.978306,-0.2166 0.621422,-0.02728 1.059437,0.06547 1.598033,0.338395 0.163606,0.08291 0.312464,0.150737 0.330794,0.150737 0.01833,0 0.03333,-0.348304 0.03333,-0.774009 v -0.774008 l -0.453125,-0.171207 c -0.418136,-0.157987 -0.554473,-0.175125 -1.765625,-0.221945 -0.721875,-0.02791 -1.968302,-0.05256 -2.769837,-0.05479 l -1.457337,-0.004 0.04338,-0.140625 c 0.151605,-0.491463 0.403886,-0.717529 1.71415,-1.536024 2.14116,-1.33754 2.680857,-2.016099 2.613854,-3.286391 -0.05916,-1.1215325 -0.663348,-1.8035612 -1.867478,-2.10806 -0.438921,-0.1109937 -0.646949,-0.1272656 -1.305669,-0.1021294 -0.668061,0.025493 -0.870893,0.059421 -1.376009,0.2301713 -0.325845,0.1101487 -0.744426,0.287225 -0.930179,0.3935025 l -0.337734,0.1932319 0.04384,0.6928668 c 0.02411,0.3810763 0.0538,0.7028232 0.06597,0.7149925 0.01217,0.012169 0.214146,-0.089054 0.448837,-0.2249412 1.309154,-0.7580069 2.740999,-0.8714613 3.456778,-0.2739031 0.188196,0.1571131 0.213306,0.2159737 0.238046,0.5579943 0.05302,0.7330344 -0.168405,0.9871744 -1.674363,1.9217224 -1.222655,0.758738 -1.67188,1.086729 -2.003358,1.462706 l -0.307374,0.348636 -0.0013,-0.96875 c -7.32e-4,-0.532812 -0.01934,-1.159426 -0.04135,-1.392475 l -0.04002,-0.4237244 -0.752386,0.017474 -0.752387,0.017475 -2.2383622,2.7500004 -2.2383627,2.75 -4.02e-5,0.609375 -4.02e-5,0.609375 h 2.28125 2.2812503 v 0.84375 0.84375 h 0.71875 0.71875 v -1.5625 -1.5625 h 1.249422 1.249422 l -0.187759,0.305147 c -0.265282,0.431138 -0.427245,0.942722 -0.508953,1.607599 -0.265717,2.162178 0.974314,3.807577 3.127213,4.149506 0.466097,0.07403 1.446954,0.0254 1.914405,-0.0949 z"
       id="path1662" />
    <path
       style="fill:#000000;stroke-width:0.0625"
       d="m 9.5181767,15.357207 c -0.3007813,-0.01146 -0.546875,-0.03598 -0.546875,-0.0545 0,-0.03177 0.8704336,-1.114655 2.1701863,-2.699867 l 0.579814,-0.707155 v 1.75403 1.75403 l -0.828125,-0.01285 c -0.455469,-0.0071 -1.0742191,-0.02223 -1.3750003,-0.03368 z"
       id="path1666" />
    <path
       style="fill:none;stroke-width:0.0625"
       d="m 18.058002,21.216316 c -1.098696,-0.16102 -2.231573,-0.873923 -2.670608,-1.680574 -0.639051,-1.174147 -0.618116,-2.794961 0.05044,-3.905197 0.121532,-0.201821 0.220967,-0.392235 0.220967,-0.423143 0,-0.032 -0.558423,-0.04892 -1.296875,-0.0393 l -1.296875,0.01689 -0.01672,1.546875 -0.01672,1.546875 H 12.37646 11.721302 v -0.84375 -0.84375 H 9.4400517 7.1588017 V 16.033474 15.475708 L 9.3866028,12.7366 11.614404,9.997492 l 0.701211,-0.017535 0.701211,-0.017535 0.03905,0.236285 c 0.02148,0.129957 0.03936,0.777496 0.03974,1.438975 l 6.88e-4,1.202691 0.547658,-0.546441 c 0.443441,-0.442454 0.762814,-0.680173 1.678286,-1.2492 1.682196,-1.0455962 1.899056,-1.272366 1.899056,-1.9858362 0,-0.4631889 -0.123965,-0.6838189 -0.485812,-0.864638 -0.39595,-0.1978601 -0.584833,-0.237655 -1.114876,-0.2348876 -0.651219,0.0034 -1.254043,0.1624348 -1.940519,0.5119408 -0.332397,0.1692342 -0.617282,0.2947759 -0.633076,0.2789816 -0.01579,-0.015794 -0.03226,-0.3040759 -0.03659,-0.6406259 l -0.0079,-0.611909 0.375,-0.2025983 c 0.68932,-0.3724134 1.286818,-0.5280239 2.15625,-0.5615667 1.526529,-0.058894 2.466155,0.3710858 2.94825,1.3491416 0.119531,0.2424997 0.143043,0.3916924 0.144162,0.9147578 0.0012,0.5489299 -0.01905,0.6684974 -0.166166,0.9823791 -0.310924,0.6633768 -0.876218,1.1666038 -2.332496,2.0763968 -1.277953,0.798387 -1.516783,0.991617 -1.692755,1.369552 -0.08238,0.17692 -0.150049,0.352267 -0.150385,0.389661 -4.37e-4,0.04725 0.7955,0.08078 2.608765,0.109927 2.642748,0.04248 2.912136,0.06554 3.5,0.29967 l 0.328125,0.130682 v 0.70841 0.708411 l -0.483649,-0.229684 c -0.432474,-0.205381 -0.547838,-0.232262 -1.090314,-0.254051 -1.051064,-0.04222 -1.846542,0.313465 -2.325195,1.03966 -0.26711,0.40525 -0.374305,0.88487 -0.337987,1.512252 0.04461,0.770628 0.472253,1.426916 1.155921,1.773953 0.777368,0.394601 2.084701,0.367642 2.811103,-0.05797 0.143621,-0.08415 0.277215,-0.153 0.296875,-0.153 0.01966,0 0.03575,0.321417 0.03575,0.714259 v 0.71426 l -0.34654,0.129657 c -0.704568,0.263613 -1.636482,0.363256 -2.37926,0.254398 z m -6.3367,-7.6301 v -1.817525 l -1.111627,1.3644 c -1.6010627,1.965129 -1.7633733,2.169735 -1.7633733,2.222872 0,0.02628 0.646875,0.04778 1.4375003,0.04778 h 1.4375 z"
       id="path1668" />
    <path
       style="fill:none;stroke-width:0.0625"
       d="m 18.058002,21.216316 c -1.098696,-0.16102 -2.231573,-0.873923 -2.670608,-1.680574 -0.639051,-1.174147 -0.618116,-2.794961 0.05044,-3.905197 0.121532,-0.201821 0.220967,-0.392235 0.220967,-0.423143 0,-0.032 -0.558423,-0.04892 -1.296875,-0.0393 l -1.296875,0.01689 -0.01672,1.546875 -0.01672,1.546875 H 12.37646 11.721302 v -0.84375 -0.84375 H 9.4400517 7.1588017 V 16.033474 15.475708 L 9.3866028,12.7366 11.614404,9.997492 l 0.701211,-0.017535 0.701211,-0.017535 0.03905,0.236285 c 0.02148,0.129957 0.03936,0.777496 0.03974,1.438975 l 6.88e-4,1.202691 0.547658,-0.546441 c 0.443441,-0.442454 0.762814,-0.680173 1.678286,-1.2492 1.682196,-1.0455962 1.899056,-1.272366 1.899056,-1.9858362 0,-0.4631889 -0.123965,-0.6838189 -0.485812,-0.864638 -0.39595,-0.1978601 -0.584833,-0.237655 -1.114876,-0.2348876 -0.651219,0.0034 -1.254043,0.1624348 -1.940519,0.5119408 -0.332397,0.1692342 -0.617282,0.2947759 -0.633076,0.2789816 -0.01579,-0.015794 -0.03226,-0.3040759 -0.03659,-0.6406259 l -0.0079,-0.611909 0.375,-0.2025983 c 0.68932,-0.3724134 1.286818,-0.5280239 2.15625,-0.5615667 1.526529,-0.058894 2.466155,0.3710858 2.94825,1.3491416 0.119531,0.2424997 0.143043,0.3916924 0.144162,0.9147578 0.0012,0.5489299 -0.01905,0.6684974 -0.166166,0.9823791 -0.310924,0.6633768 -0.876218,1.1666038 -2.332496,2.0763968 -1.277953,0.798387 -1.516783,0.991617 -1.692755,1.369552 -0.08238,0.17692 -0.150049,0.352267 -0.150385,0.389661 -4.37e-4,0.04725 0.7955,0.08078 2.608765,0.109927 2.642748,0.04248 2.912136,0.06554 3.5,0.29967 l 0.328125,0.130682 v 0.70841 0.708411 l -0.483649,-0.229684 c -0.432474,-0.205381 -0.547838,-0.232262 -1.090314,-0.254051 -1.051064,-0.04222 -1.846542,0.313465 -2.325195,1.03966 -0.26711,0.40525 -0.374305,0.88487 -0.337987,1.512252 0.04461,0.770628 0.472253,1.426916 1.155921,1.773953 0.777368,0.394601 2.084701,0.367642 2.811103,-0.05797 0.143621,-0.08415 0.277215,-0.153 0.296875,-0.153 0.01966,0 0.03575,0.321417 0.03575,0.714259 v 0.71426 l -0.34654,0.129657 c -0.704568,0.263613 -1.636482,0.363256 -2.37926,0.254398 z m -6.3367,-7.6301 v -1.817525 l -1.111627,1.3644 c -1.6010627,1.965129 -1.7633733,2.169735 -1.7633733,2.222872 0,0.02628 0.646875,0.04778 1.4375003,0.04778 h 1.4375 z"
       id="path1670" />
    <path
       style="fill:none;stroke-width:0.0625"
       d="m 18.058002,21.216316 c -1.098696,-0.16102 -2.231573,-0.873923 -2.670608,-1.680574 -0.639051,-1.174147 -0.618116,-2.794961 0.05044,-3.905197 0.121532,-0.201821 0.220967,-0.392235 0.220967,-0.423143 0,-0.032 -0.558423,-0.04892 -1.296875,-0.0393 l -1.296875,0.01689 -0.01672,1.546875 -0.01672,1.546875 H 12.37646 11.721302 v -0.84375 -0.84375 H 9.4400517 7.1588017 V 16.033474 15.475708 L 9.3866028,12.7366 11.614404,9.997492 l 0.701211,-0.017535 0.701211,-0.017535 0.03905,0.236285 c 0.02148,0.129957 0.03936,0.777496 0.03974,1.438975 l 6.88e-4,1.202691 0.547658,-0.546441 c 0.443441,-0.442454 0.762814,-0.680173 1.678286,-1.2492 1.682196,-1.0455962 1.899056,-1.272366 1.899056,-1.9858362 0,-0.4631889 -0.123965,-0.6838189 -0.485812,-0.864638 -0.39595,-0.1978601 -0.584833,-0.237655 -1.114876,-0.2348876 -0.651219,0.0034 -1.254043,0.1624348 -1.940519,0.5119408 -0.332397,0.1692342 -0.617282,0.2947759 -0.633076,0.2789816 -0.01579,-0.015794 -0.03226,-0.3040759 -0.03659,-0.6406259 l -0.0079,-0.611909 0.375,-0.2025983 c 0.68932,-0.3724134 1.286818,-0.5280239 2.15625,-0.5615667 1.526529,-0.058894 2.466155,0.3710858 2.94825,1.3491416 0.119531,0.2424997 0.143043,0.3916924 0.144162,0.9147578 0.0012,0.5489299 -0.01905,0.6684974 -0.166166,0.9823791 -0.310924,0.6633768 -0.876218,1.1666038 -2.332496,2.0763968 -1.277953,0.798387 -1.516783,0.991617 -1.692755,1.369552 -0.08238,0.17692 -0.150049,0.352267 -0.150385,0.389661 -4.37e-4,0.04725 0.7955,0.08078 2.608765,0.109927 2.642748,0.04248 2.912136,0.06554 3.5,0.29967 l 0.328125,0.130682 v 0.70841 0.708411 l -0.483649,-0.229684 c -0.432474,-0.205381 -0.547838,-0.232262 -1.090314,-0.254051 -1.051064,-0.04222 -1.846542,0.313465 -2.325195,1.03966 -0.26711,0.40525 -0.374305,0.88487 -0.337987,1.512252 0.04461,0.770628 0.472253,1.426916 1.155921,1.773953 0.777368,0.394601 2.084701,0.367642 2.811103,-0.05797 0.143621,-0.08415 0.277215,-0.153 0.296875,-0.153 0.01966,0 0.03575,0.321417 0.03575,0.714259 v 0.71426 l -0.34654,0.129657 c -0.704568,0.263613 -1.636482,0.363256 -2.37926,0.254398 z m -6.3367,-7.6301 v -1.817525 l -1.111627,1.3644 c -1.6010627,1.965129 -1.7633733,2.169735 -1.7633733,2.222872 0,0.02628 0.646875,0.04778 1.4375003,0.04778 h 1.4375 z"
       id="path1672" />
  </g>
</svg>
