<?xml version="1.0" encoding="UTF-8"?>
<svg width="28" height="28" data-name="Layer 1" version="1.1" viewBox="0 0 28 28" xmlns="http://www.w3.org/2000/svg">
 <defs>
  <style>.cls-1{fill:#7e488f;}.cls-2{fill:#fff;}</style>
 </defs>
 <title>logo_icon</title>
 <text x="-226.18999" y="-297.92401"/>
 <g fill="none" stroke-width=".16291"></g>
 <path d="m14.01-0.023437-3.2461 1.8613c-1.7851 1.0234-4.5233 2.598-6.084 3.5l-2.8359 1.6406-0.01758 6.9961-0.01563 7 6.1055 3.5254 6.1035 3.5234 0.25-0.14062c0.13679-0.07688 2.8677-1.6503 6.0684-3.498l5.8184-3.3594 0.01758-7.0332 0.01563-7.0312-2.2734-1.3125c-4.479-2.5858-9.4372-5.4321-9.6699-5.5508zm0 2.3691 0.19922 0.09961c0.19677 0.09866 4.3888 2.4645 8.1758 4.6133l1.9219 1.0918-0.01367 5.8437-0.01563 5.8457-4.918 2.791c-2.7062 1.5355-5.0152 2.8424-5.1309 2.9062l-0.21289 0.11719-5.1582-2.9277-5.1641-2.9297 0.01367-5.8164 0.01563-5.8164 2.3965-1.3633c1.3196-0.74954 3.6352-2.0577 5.1445-2.9082z" stop-color="#000000"/>
 <path d="m18.764 11.478v0.81135h0.81134v-0.81135c0-0.89501-0.72768-1.6227-1.6227-1.6227h-2.9792c-0.43103 0-0.84431-0.16987-1.1486-0.47413l-0.67189-0.67443c-0.30426-0.30426-0.71753-0.47413-1.1486-0.47413h-2.9766c-0.89501 0-1.6227 0.72768-1.6227 1.6227v8.1134c0 0.89501 0.72767 1.6227 1.6227 1.6227h10.142c0.49695 0 0.94573-0.30172 1.1308-0.76571l1.6227-4.0567c0.14959-0.37524 0.10395-0.79867-0.1217-1.1333-0.22566-0.33468-0.60597-0.53498-1.0091-0.53498h-10.142c-0.49695 0-0.94572 0.30172-1.1308 0.76571l-1.3032 3.2606v-7.2717c0-0.44878 0.36257-0.81134 0.81134-0.81134h2.9792c0.21551 0 0.42088 0.086196 0.57301 0.23833l0.57302-0.57301-0.57302 0.57301 0.6719 0.67189c0.45638 0.45638 1.075 0.71246 1.7216 0.71246h2.9792c0.44878 0 0.81135 0.36257 0.81135 0.81134zm-1.6227 7.3021h-8.1134c-0.13438 0-0.26115-0.06592-0.33468-0.17748-0.073524-0.11156-0.091277-0.25354-0.040577-0.37778l1.6227-4.0567c0.06085-0.15466 0.21044-0.25608 0.37778-0.25608h10.139c0.13438 0 0.26115 0.06592 0.33468 0.17748 0.07353 0.11156 0.09128 0.25354 0.04058 0.37778l-1.6227 4.0567c-0.06084 0.15466-0.21044 0.25608-0.37524 0.25608z" stroke="#000" stroke-width=".56693"/>
</svg>
