<?xml version="1.0" encoding="UTF-8"?>
<svg width="28" height="28" data-name="Layer 1" version="1.1" viewBox="0 0 28 28" xmlns="http://www.w3.org/2000/svg">
 <defs>
  <style>.cls-1{fill:#7e488f;}.cls-2{fill:#fff;}</style>
 </defs>
 <title>logo_icon</title>
 <text x="-226.18999" y="-297.92401"/>
 <g fill="none" stroke-width=".16291"></g>
 <path d="m14.01-0.023437-3.2461 1.8613c-1.7851 1.0234-4.5233 2.598-6.084 3.5l-2.8359 1.6406-0.01758 6.9961-0.01563 7 6.1055 3.5254 6.1035 3.5234 0.25-0.14062c0.13679-0.07688 2.8677-1.6503 6.0684-3.498l5.8184-3.3594 0.01758-7.0332 0.01563-7.0312-2.2734-1.3125c-4.479-2.5858-9.4372-5.4321-9.6699-5.5508zm0 2.3691 0.19922 0.09961c0.19677 0.09866 4.3888 2.4645 8.1758 4.6133l1.9219 1.0918-0.01367 5.8437-0.01563 5.8457-4.918 2.791c-2.7062 1.5355-5.0152 2.8424-5.1309 2.9062l-0.21289 0.11719-5.1582-2.9277-5.1641-2.9297 0.01367-5.8164 0.01563-5.8164 2.3965-1.3633c1.3196-0.74954 3.6352-2.0577 5.1445-2.9082z" stop-color="#000000"/>
 <path d="m14.904 6.1527c-0.20334 0.00181-0.40575 0.015-0.60742 0.042969l0.09375 0.015625c-0.16063 0.015118-0.31294 0.034091-0.45898 0.060547l0.01953-0.019531c-0.15458 0.030236-0.30499 0.073409-0.45508 0.11914-0.32353 0.091843-0.63194 0.21769-0.95898 0.39453l-0.38672 0.20898v0.039063c-0.0038 0.00348-0.01185 0.00794-0.01563 0.011719v1.0918l0.03906-0.039063c0.0076 0.1062 0.01588 0.17799 0.02344 0.18555 0.01134 0.011339 0.20636-0.072917 0.44141-0.18555-0.06047 0.034016-0.12117 0.071202-0.18164 0.10938l0.39258-0.21094h2e-3c0.70768-0.35981 1.3285-0.52383 2-0.52734-0.05631 4.535e-4 -0.11046 0.00794-0.16602 0.011719 0.06916-0.00348 0.13818-0.011719 0.20508-0.011719 0.14894-8.48e-5 0.26748 0.00875 0.37695 0.019531 0.06056 0.00596 0.1197 0.013067 0.17383 0.023438 0.05372 0.010293 0.10687 0.021718 0.1582 0.037109-0.05224-0.015052-0.10401-0.027256-0.1582-0.037109-0.05483-0.00997-0.11308-0.017874-0.17383-0.023438-0.06075-0.00556-0.1247-0.00964-0.19531-0.011719 0.04573 0.00295 0.09093 0.00807 0.13477 0.015625 0.50933 0.06085 1.0048 0.30122 1.1641 0.5625 0.16592 0.27213 0.17121 0.76519 0.01172 1.1191-0.16592 0.36548-0.52014 0.64809-1.7676 1.4043-0.36435 0.22073-0.64588 0.39857-0.88867 0.5586l0.0078 0.04687c-0.01134 0.0076-0.02369 0.01588-0.03125 0.02344v2e-3c-0.0189 0.01134-0.02634 0.01796-0.04297 0.0293-0.05782 0.03955-0.11914 0.08102-0.16797 0.11719-0.08806 0.0601-0.19539 0.1281-0.25586 0.17383-0.26457 0.20032-0.49995 0.43362-0.70117 0.69531l-0.28711 0.28516-2e-3 -1.2402c-3.78e-4 -0.61712-0.0143-1.2007-0.0332-1.4102v-2e-3c-1.13e-4 -0.0012 1.14e-4 -0.0029 0-0.0039-0.0019-0.0189-4e-3 -0.05626-0.0078-0.06836l-0.03906-0.24414-0.72461 0.01758-0.72266 0.01953-2.2988 2.8281-2.2988 2.8262v1.1504l4.707 0.0293c-0.0019 0.58537 7.49e-4 1.1725 0.0039 1.7578h1.3945c-0.0015-1.0788 0.0026-2.1576 0-3.2363 1.4117-0.03024 1.9357-0.0201 2.668 0.02148 0 9.82e-4 -0.0038 8e-3 -0.0039 0.01172h-2e-3l-0.11523 0.16211c-0.12321 0.17461-0.22563 0.3606-0.31445 0.55664l0.0098 0.0625c0.08202-0.18444 0.1811-0.3598 0.29297-0.52734-0.03024 0.05631-0.05828 0.10914-0.0957 0.17188-0.08315 0.13795-0.15721 0.28234-0.2207 0.43359l0.02344-0.07813c-0.0038 0.01134-0.0081 0.02186-0.01563 0.0332-0.17046 0.40101-0.27792 0.82595-0.31836 1.2598l0.03125-0.11524c-0.0994 0.85527 0.04874 1.762 0.44922 2.498 0.02646 0.05216 0.05817 0.10327 0.0918 0.1543 0.03402 0.05102 0.07083 0.10246 0.10937 0.15234 0.19011 0.24567 0.43899 0.47504 0.72461 0.67773-0.01134-0.0076-0.01991-0.01002-0.03125-0.01758l-0.28515-0.16211c0.04384 0.03893 0.08865 0.07662 0.13476 0.11328 0.37882 0.29405 0.80475 0.52208 1.2598 0.67383 0.0076 0.0017 0.01197 0.0031 0.01953 0.0078l-0.25195-0.14062c-0.01512-0.0076-0.03025-0.01588-0.04687-0.02344 0.3326 0.14438 0.68372 0.24976 1.0312 0.30078 0.08693 0.01134 0.17611 0.01978 0.26758 0.02734-0.09146-0.0076-0.18456-0.0121-0.27148-0.02344-0.0189-0.0026-0.03421-8e-3 -0.05274-0.01172l-0.16602 0.0039c0.10356 0.02268 0.20938 0.03913 0.31445 0.05273 0.04724 0.0076 0.09338 0.01184 0.14062 0.01563 0.03779 0.0036 0.07114 8e-3 0.10742 0.01172 0.0019 1.14e-4 4e-3 -1.51e-4 0.0078 0 0.07446 0.0038 0.1494 6e-3 0.22461 0.0098 0.0019 3.8e-5 4e-3 -3.8e-5 0.0078 0 0.02646 6.42e-4 0.05204 0.0037 0.07813 0.0039 0.09335 6.8e-4 0.18676-0.0017 0.28125-0.0078 0.29367-0.01512 0.68182-0.07398 0.95508-0.13672l-0.24023 0.0059c0.28195-0.05178 0.55553-0.12143 0.80078-0.21289l0.35156-0.13086v0.0098l0.0078-2e-3v-0.06836l-2e-3 0.01563v-0.01953l2e-3 0.0039 2e-3 2e-3 -2e-3 -1.4688c-0.02646 0.02268-0.05563 0.04725-0.08398 0.07031-0.05102 0.02268-0.14613 0.06988-0.26367 0.13867-0.20561 0.12057-0.45834 0.2078-0.73047 0.26562l-0.01758-0.01758c-0.69116 0.15307-1.505 0.08935-2.1309-0.2168-0.79423-0.38827-1.248-1.1892-1.2168-2.0957l-2e-3 2e-3c0.0085-0.50646 0.11968-0.91536 0.35156-1.2676 0.0038-0.0076 0.01002-0.01588 0.01758-0.02344l0.02734-0.0039c0.20712-0.30992 0.49426-0.5578 0.87891-0.75195 0.26419-0.1338 0.54905-0.21832 0.83984-0.26367 0.0033-4.16e-4 8e-3 -0.0016 0.01172-2e-3 0.19843-0.02646 0.40409-0.03672 0.625-0.02539 0.07975 0.0033 0.13497 6e-3 0.19922 0.0098 0.33298 0.04233 0.66193 0.13914 0.96875 0.29297 0.18142 0.09109 0.28933 0.14384 0.36719 0.18164l0.01367-2e-3c-0.04346-0.03024-0.08821-0.05873-0.13281-0.08594l0.17969 0.08594-0.04883 2e-3c0.01512 0.01134 0.02634 0.01991 0.04297 0.03125l2e-3 2e-3c0.0189 0.0076 0.04348 0.01966 0.04687 0.02344v-0.05664h-0.01172v-0.02539l0.01172 0.02344v-1.4316c-0.0038-0.0019-8e-3 -0.0021-0.01172-0.0059v-0.01172l-0.33785-0.1349c-0.16139-0.06425-0.30124-0.1126-0.46875-0.15039-0.0076-0.0025-0.016-0.0078-0.02734-0.0078v2e-3c-0.0189-0.0038-0.04209-8e-3 -0.0625-0.01172l0.05859 0.0039c-0.22299-0.05934-0.44896-0.10163-0.67773-0.12695-0.1629-0.01134-0.3239-0.02356-0.5625-0.02734h-2e-3l-1.1094 0.0039 0.50391 0.03125c-0.3651-0.0076-0.73657-0.016-1.2656-0.02734-1.7637-0.02902-2.5829-0.06115-2.6719-0.10547l0.07031-0.20898c0.18406-0.53548 0.38658-0.70083 2.2266-1.8301l-0.0039-0.0098v-2e-3c-0.05291 0.03024-0.10844 0.06194-0.16211 0.0918l-0.31445 0.19726-0.33789 0.19922-0.22852 0.14062c0.18368-0.11981 0.37189-0.24077 0.63086-0.40234 0.21354-0.13342 0.40383-0.25512 0.58203-0.37305l-0.16992 0.14844c0.58095-0.34432 1.1153-0.76173 1.5898-1.2422 0.0032-0.0034 8e-3 -8e-3 0.01172-0.01172 0.05669-0.06501 0.11531-0.12955 0.16406-0.19531 0.0025-0.0033 4e-3 -8e-3 0.0078-0.01172 0.01134-0.01512 0.02186-0.02634 0.0332-0.04297 0.02646-0.0378 0.05041-0.07511 0.07422-0.11328l0.0293-0.04883-0.11914 0.10352c0.07748-0.1149 0.14605-0.23181 0.20312-0.35352 0.15194-0.32391 0.17301-0.44727 0.17188-1.0137-1.51e-4 -0.057449-0.0012-0.095397-2e-3 -0.14453l0.06641 0.18164c-0.0011-0.64114-0.19379-1.1591-0.57998-1.5547l0.01953 0.046875c-0.03024-0.034016-0.06005-0.069058-0.0918-0.10156l0.07226 0.054687c-0.07836-0.080128-0.16372-0.15656-0.25781-0.22656-0.01512-0.011339-0.03415-0.021865-0.05078-0.033203-0.20372-0.1542-0.43753-0.27723-0.70508-0.36719-0.0013-4.535e-4 -0.0027-0.00149-0.0039-0.00195-0.0076-0.00276-0.01783-0.00403-0.02539-0.00781-0.40902-0.14249-0.87621-0.21484-1.4004-0.21484-0.03024-2.269e-4 -0.05878-2.269e-4 -0.08789 0zm-4.0703 5.4453v3.6211l-0.85352-0.01563c-0.66304 0.01134-2.0059 0.01953-2.0059 0.01953s0.92052-1.2588 2.2617-2.8945z" stroke-width=".0625"/>
</svg>
