<?xml version="1.0" encoding="UTF-8"?>
<svg xmlns="http://www.w3.org/2000/svg" xmlns:xlink="http://www.w3.org/1999/xlink" width="28px" height="28px" viewBox="0 0 28 28" version="1.1">
<g id="surface1">
<path style=" stroke:none;fill-rule:evenodd;fill:rgb(25.882353%,25.882353%,25.882353%);fill-opacity:1;" d="M 25.375 3.5 L 15.75 3.5 L 15.136719 3.761719 L 14 4.882812 L 12.863281 3.761719 L 12.25 3.5 L 2.625 3.5 L 1.75 4.375 L 1.75 21.875 L 2.625 22.75 L 11.882812 22.75 L 13.386719 24.238281 L 14.613281 24.238281 L 16.117188 22.75 L 25.375 22.75 L 26.25 21.875 L 26.25 4.375 Z M 13.125 21.558594 L 12.808594 21.261719 L 12.25 21 L 3.5 21 L 3.5 5.25 L 11.882812 5.25 L 13.179688 6.546875 Z M 24.5 21 L 15.75 21 L 15.136719 21.261719 L 14.894531 21.488281 L 14.894531 6.476562 L 16.117188 5.25 L 24.5 5.25 Z M 10.5 8.75 L 5.25 8.75 L 5.25 10.5 L 10.5 10.5 Z M 10.5 15.75 L 5.25 15.75 L 5.25 17.5 L 10.5 17.5 Z M 5.25 12.25 L 10.5 12.25 L 10.5 14 L 5.25 14 Z M 22.75 8.75 L 17.5 8.75 L 17.5 10.5 L 22.75 10.5 Z M 17.5 12.25 L 22.75 12.25 L 22.75 14 L 17.5 14 Z M 17.5 15.75 L 22.75 15.75 L 22.75 17.5 L 17.5 17.5 Z M 17.5 15.75 "/>
</g>
</svg>
