<?xml version="1.0" encoding="UTF-8" standalone="no"?>
<svg
   viewBox="0 0 512 512"
   version="1.1"
   id="svg1"
   sodipodi:docname="arrow-left-from-bracket.svg"
   inkscape:version="1.3 (0e150ed, 2023-07-21)"
   xmlns:inkscape="http://www.inkscape.org/namespaces/inkscape"
   xmlns:sodipodi="http://sodipodi.sourceforge.net/DTD/sodipodi-0.dtd"
   xmlns="http://www.w3.org/2000/svg"
   xmlns:svg="http://www.w3.org/2000/svg">
  <defs
     id="defs1" />
  <sodipodi:namedview
     id="namedview1"
     pagecolor="#ffffff"
     bordercolor="#000000"
     borderopacity="0.25"
     inkscape:showpageshadow="2"
     inkscape:pageopacity="0.0"
     inkscape:pagecheckerboard="0"
     inkscape:deskcolor="#d1d1d1"
     inkscape:zoom="1.6894531"
     inkscape:cx="256"
     inkscape:cy="255.70405"
     inkscape:window-width="1392"
     inkscape:window-height="1027"
     inkscape:window-x="2197"
     inkscape:window-y="25"
     inkscape:window-maximized="0"
     inkscape:current-layer="svg1" />
  <!--! Font Awesome Pro 6.2.0 by @fontawesome - https://fontawesome.com License - https://fontawesome.com/license (Commercial License) Copyright 2022 Fonticons, Inc. -->
  <path
     d="m 4.7,244.7 144,-144 c 6.25,-6.25 16.38,-6.25 22.62,0 6.24,6.25 6.25,16.38 0,22.62 L 54.6,240 H 336 c 8.8,0 16,7.2 16,16 0,8.8 -7.156,16 -16,16 H 54.6 l 116.7,116.7 c 6.25,6.25 6.25,16.38 0,22.62 -6.25,6.24 -16.38,6.25 -22.62,0 l -144,-144 C 1.6,264.2 0,260.1 0,256 0,251.9 1.6,247.8 4.7,244.7 Z M 336,448 h 96 c 26.47,0 48,-21.5 48,-48 V 112 C 480,85.53 458.47,64 432,64 h -96 c -8.8,0 -16,-7.16 -16,-16 0,-8.84 7.2,-16 16,-16 h 96 c 44.12,0 80,35.88 80,80 v 288 c 0,44.1 -35.88,80 -80,80 h -96 c -8.8,0 -16,-7.2 -16,-16 0,-8.8 7.2,-16 16,-16 z"
     id="path1" />
</svg>
