<?xml version="1.0" encoding="UTF-8" standalone="no"?>
<svg
   viewBox="0 0 16 16"
   version="1.1"
   id="svg1"
   sodipodi:docname="file-lines.svg"
   width="16"
   height="16"
   inkscape:version="1.3 (0e150ed, 2023-07-21)"
   xmlns:inkscape="http://www.inkscape.org/namespaces/inkscape"
   xmlns:sodipodi="http://sodipodi.sourceforge.net/DTD/sodipodi-0.dtd"
   xmlns="http://www.w3.org/2000/svg"
   xmlns:svg="http://www.w3.org/2000/svg">
  <defs
     id="defs1" />
  <sodipodi:namedview
     id="namedview1"
     pagecolor="#ffffff"
     bordercolor="#000000"
     borderopacity="0.25"
     inkscape:showpageshadow="2"
     inkscape:pageopacity="0.0"
     inkscape:pagecheckerboard="0"
     inkscape:deskcolor="#d1d1d1"
     inkscape:zoom="20.85965"
     inkscape:cx="10.882254"
     inkscape:cy="8.9167364"
     inkscape:window-width="1312"
     inkscape:window-height="715"
     inkscape:window-x="0"
     inkscape:window-y="25"
     inkscape:window-maximized="0"
     inkscape:current-layer="svg1" />
  <!--! Font Awesome Pro 6.4.2 by @fontawesome - https://fontawesome.com License - https://fontawesome.com/license (Commercial License) Copyright 2023 Fonticons, Inc. -->
  <path
     d="M 12.079543,14.943447 H 3.9204567 c -0.5641243,0 -1.0198857,-0.443264 -1.0198857,-0.991921 V 2.048474 c 0,-0.5486563 0.4557614,-0.991921 1.0198857,-0.991921 h 4.0795428 v 3.4717236 c 0,0.8214346 0.6852355,1.4878815 1.5298287,1.4878815 h 3.5696008 v 7.9353679 c 0,0.548657 -0.455762,0.991921 -1.019886,0.991921 z M 9.5298282,5.0242371 c -0.2804688,0 -0.5099426,-0.2231823 -0.5099426,-0.4959605 V 1.0720518 c 0.089239,0.021698 0.1721055,0.065095 0.2358484,0.1301896 l 3.693899,3.5926139 c 0.06693,0.065095 0.11155,0.1425887 0.13386,0.2293818 z M 3.9204567,0.064632 c -1.1250614,0 -2.0397714,0.88962914 -2.0397714,1.983842 v 11.903052 c 0,1.094213 0.91471,1.983842 2.0397714,1.983842 h 8.1590853 c 1.125062,0 2.039773,-0.889629 2.039773,-1.983842 V 5.1451275 c 0,-0.3936687 -0.162545,-0.7718386 -0.449387,-1.0508164 L 9.9792153,0.5016972 C 9.6923725,0.22271941 9.3035411,0.064632 8.8987737,0.064632 Z m 1.5298285,7.9353681 c -0.2804685,0 -0.5099429,0.2231824 -0.5099429,0.4959603 0,0.2727785 0.2294743,0.4959609 0.5099429,0.4959609 h 5.0994288 c 0.280468,0 0.509943,-0.2231824 0.509943,-0.4959609 0,-0.2727779 -0.229475,-0.4959603 -0.509943,-0.4959603 z m 0,1.9838418 c -0.2804685,0 -0.5099429,0.2231821 -0.5099429,0.4959611 0,0.272778 0.2294743,0.49596 0.5099429,0.49596 h 5.0994288 c 0.280468,0 0.509943,-0.223182 0.509943,-0.49596 0,-0.272779 -0.229475,-0.4959611 -0.509943,-0.4959611 z m 0,1.9838421 c -0.2804685,0 -0.5099429,0.223182 -0.5099429,0.495961 0,0.272778 0.2294743,0.49596 0.5099429,0.49596 h 5.0994288 c 0.280468,0 0.509943,-0.223182 0.509943,-0.49596 0,-0.272779 -0.229475,-0.495961 -0.509943,-0.495961 z"
     id="path1"
     style="stroke-width:0.0314315"  fill="#424242"/>
</svg>
