<?xml version="1.0" encoding="utf-8"?>
<!-- Generator: Adobe Illustrator 23.0.4, SVG Export Plug-In . SVG Version: 6.00 Build 0)  -->
<svg version="1.1" id="Layer_1" xmlns="http://www.w3.org/2000/svg" xmlns:xlink="http://www.w3.org/1999/xlink" x="0px" y="0px"
	 viewBox="0 0 566.93 192.22" style="enable-background:new 0 0 566.93 192.22;" xml:space="preserve">
<style type="text/css">
	.st0{fill:#2D2D2D;}
	.st1{fill:#7F488E;}
	.st2{fill:#FFFFFF;}
</style>
<path class="st0" d="M163.22,96.14c0-12.87,4.07-22.7,12.2-29.49c8.13-6.8,17.71-10.19,28.72-10.19c8.85,0,16.47,1.91,22.85,5.71
	V77.3c-5.77-4.12-12.61-6.18-20.54-6.18c-7.31,0-13.54,2.03-18.68,6.1c-5.15,4.07-7.72,10.17-7.72,18.3
	c0,7.93,2.55,13.98,7.64,18.14c5.1,4.17,11.25,6.25,18.45,6.25c7.82,0,15.03-1.9,21.62-5.71v15.29c-7.1,3.4-15.29,5.1-24.55,5.1
	c-10.81,0-20.18-3.32-28.1-9.96C167.18,117.99,163.22,108.49,163.22,96.14z"/>
<path class="st0" d="M246.14,70.66c2.88-4.63,7.15-8.23,12.82-10.81c5.66-2.57,11.79-3.55,18.38-2.93v16.21
	c-6.59-0.93-12.56-0.05-17.91,2.62c-5.35,2.68-9.16,6.64-11.43,11.89v44.94h-16.52V58.46h14.67V70.66z"/>
<path class="st0" d="M316.81,57.88h16.52v74.12h-14.67v-10.19c-6.79,8.13-15.39,12.2-25.79,12.2c-9.57,0-17.06-2.78-22.47-8.34
	c-5.4-5.56-8.11-12.87-8.11-21.93V57.88h16.52v43.7c0,11.84,5.76,17.76,17.29,17.76c8.13,0,15.03-4.12,20.69-12.35V57.88z"/>
<path class="st0" d="M352.23,68.08c6.8-8.13,15.39-12.2,25.79-12.2c9.27,0,16.68,2.81,22.24,8.42c5.56,5.61,8.34,12.89,8.34,21.85
	v45.86h-16.52v-43.7c0-5.76-1.6-10.17-4.79-13.2c-3.19-3.04-7.36-4.56-12.51-4.56c-8.13,0-15.03,4.12-20.69,12.35v49.11h-16.52
	V57.88h14.67V68.08z"/>
<path class="st0" d="M411.37,95.56c0-12.87,4.07-22.7,12.2-29.49c8.13-6.8,17.71-10.19,28.72-10.19c8.85,0,16.47,1.91,22.85,5.71
	v15.13c-5.77-4.12-12.61-6.18-20.54-6.18c-7.31,0-13.54,2.03-18.68,6.1c-5.15,4.07-7.72,10.17-7.72,18.3
	c0,7.93,2.55,13.98,7.64,18.14s11.25,6.25,18.45,6.25c7.82,0,15.03-1.9,21.62-5.71v15.29c-7.1,3.4-15.29,5.1-24.55,5.1
	c-10.81,0-20.18-3.32-28.11-9.96C415.33,117.41,411.37,107.92,411.37,95.56z"/>
<path class="st0" d="M479.62,23.91h16.52v42.16c6.59-6.8,14.57-10.19,23.94-10.19c9.27,0,16.68,2.81,22.24,8.42
	c5.56,5.61,8.34,12.89,8.34,21.85v45.86h-16.52v-43.7c0-5.76-1.6-10.17-4.79-13.2c-3.19-3.04-7.36-4.56-12.51-4.56
	c-8.13,0-15.03,4.12-20.69,12.35v49.11h-16.52V23.91z"/>
<polygon class="st1" points="154.94,136.71 154.94,53.26 82.67,11.54 10.4,53.26 10.4,136.71 82.67,178.44 "/>
<path class="st2" d="M71.02,77.04h11.61v43.88h0.14v9.83h-0.14v13.8H71.72v-13.8H35.09v-9.63L71.02,77.04z M71.72,120.91V91.42
	l-24.04,29.49H71.72z"/>
<path class="st2" d="M82.06,57.1c6.68-4.57,14.16-6.85,22.44-6.85c7.08,0,12.81,1.64,17.17,4.91c4.37,3.28,6.55,7.96,6.55,14.05
	c0,5.05-1.68,9.36-5.05,12.93c-3.37,3.57-7.95,7.07-13.75,10.47c-0.45,0.28-1.29,0.79-2.5,1.54c-1.22,0.75-2.08,1.28-2.59,1.59
	c-0.51,0.31-1.29,0.79-2.33,1.43c-1.05,0.64-1.82,1.12-2.33,1.43c-0.51,0.31-1.17,0.79-2,1.43c-0.82,0.64-1.43,1.18-1.82,1.62
	c-0.39,0.44-0.85,0.98-1.38,1.62c-0.53,0.64-0.9,1.23-1.13,1.77c-0.23,0.54-0.44,1.15-0.64,1.83c-0.2,0.68-0.3,1.35-0.3,2.03
	l36.19-0.1v10.23h-48.8v-5.16c0-8.6,3.64-15.75,10.92-21.44c2.03-1.53,5.84-3.99,11.41-7.39c5.61-3.22,9.22-5.56,10.83-7.01
	c2.65-2.58,3.97-5.46,3.97-8.64c0-2.91-1.18-5.13-3.52-6.65c-2.35-1.52-5.64-2.28-9.88-2.28c-7.35,0-14.49,2.52-21.44,7.54V57.1z"/>
</svg>
