<?xml version="1.0" encoding="UTF-8" standalone="no"?>
<svg
   viewBox="0 0 512 512"
   version="1.1"
   id="svg1"
   sodipodi:docname="response.svg"
   inkscape:version="1.3 (0e150ed, 2023-07-21)"
   xmlns:inkscape="http://www.inkscape.org/namespaces/inkscape"
   xmlns:sodipodi="http://sodipodi.sourceforge.net/DTD/sodipodi-0.dtd"
   xmlns="http://www.w3.org/2000/svg"
   xmlns:svg="http://www.w3.org/2000/svg">
  <defs
     id="defs1" />
  <sodipodi:namedview
     id="namedview1"
     pagecolor="#ffffff"
     bordercolor="#000000"
     borderopacity="0.25"
     inkscape:showpageshadow="2"
     inkscape:pageopacity="0.0"
     inkscape:pagecheckerboard="0"
     inkscape:deskcolor="#d1d1d1"
     inkscape:zoom="0.4609375"
     inkscape:cx="256"
     inkscape:cy="256"
     inkscape:window-width="1312"
     inkscape:window-height="449"
     inkscape:window-x="0"
     inkscape:window-y="25"
     inkscape:window-maximized="0"
     inkscape:current-layer="svg1" />
  <!--! Font Awesome Pro 6.2.0 by @fontawesome - https://fontawesome.com License - https://fontawesome.com/license (Commercial License) Copyright 2022 Fonticons, Inc. -->
  <path
     d="m 160.01367,96.011719 c -1.02343,0 -2.04627,0.09766 -3.05469,0.292968 -1.00841,0.195313 -2.00179,0.488282 -2.96484,0.878907 -0.96305,0.390624 -1.89588,0.878907 -2.7832,1.464843 -0.88733,0.585937 -1.73047,1.269533 -2.51172,2.050783 l -144,144 c -0.775,0.775 -1.45508,1.61367 -2.04102,2.49805 -0.58593,0.88437 -1.07695,1.81484 -1.4707,2.77734 -0.39375,0.9625 -0.69023,1.95742 -0.88867,2.9668 C 0.10039,253.95078 0,254.975 0,256 c 0,1.025 0.1007,2.05086 0.29883,3.06055 0.19812,1.00968 0.49422,2.00304 0.88672,2.96679 0.3925,0.96375 0.87976,1.89797 1.46289,2.78516 0.58312,0.88719 1.26125,1.72781 2.03125,2.50781 l 144,144 c 0.78,0.78125 1.62142,1.4651 2.50781,2.05078 0.88639,0.58569 1.81883,1.07266 2.78125,1.46289 0.96242,0.39024 1.95479,0.68206 2.96289,0.87696 1.00811,0.1949 2.03125,0.29328 3.05469,0.29297 1.02343,-3.2e-4 2.04627,-0.0976 3.05469,-0.29297 1.00841,-0.19541 2.00179,-0.48852 2.96484,-0.87891 0.96305,-0.39039 1.89588,-0.87959 2.7832,-1.46484 0.88733,-0.58526 1.73047,-1.26688 2.51172,-2.04688 0.78125,-0.78 1.46485,-1.62142 2.05078,-2.50781 0.58594,-0.88639 1.07422,-1.81883 1.46485,-2.78125 0.39062,-0.96242 0.68359,-1.95479 0.8789,-2.96289 0.19531,-1.00811 0.29297,-2.03125 0.29297,-3.05469 0,-1.02343 -0.0977,-2.04627 -0.29297,-3.05469 -0.19531,-1.00841 -0.48828,-2.00179 -0.8789,-2.96484 -0.39063,-0.96305 -0.87891,-1.89588 -1.46485,-2.7832 -0.58593,-0.88733 -1.26953,-1.73047 -2.05078,-2.51172 L 54.59961,272 H 336 c 1.1055,0 2.18449,-0.11211 3.22656,-0.32617 1.04207,-0.21406 2.04663,-0.5293 3.00391,-0.93555 0.95728,-0.40625 1.86762,-0.90391 2.71875,-1.48047 0.85113,-0.57656 1.64356,-1.23203 2.36719,-1.95703 0.72362,-0.725 1.37836,-1.51953 1.95312,-2.37109 0.57476,-0.85156 1.07008,-1.76055 1.47461,-2.7168 0.40453,-0.95625 0.7187,-1.95898 0.93164,-2.99805 C 351.88873,258.17578 352,257.1 352,256 c 0,-1.1 -0.11211,-2.17578 -0.32617,-3.21484 -0.21406,-1.03907 -0.5293,-2.0418 -0.93555,-2.99805 -0.40625,-0.95625 -0.90391,-1.86524 -1.48047,-2.7168 -0.57656,-0.85156 -1.23203,-1.64609 -1.95703,-2.37109 -0.725,-0.725 -1.51953,-1.38047 -2.37109,-1.95703 -0.85156,-0.57656 -1.76055,-1.07422 -2.7168,-1.48047 -0.95625,-0.40625 -1.95898,-0.72149 -2.99805,-0.93555 C 338.17578,240.11211 337.1,240 336,240 H 54.59961 l 116.7207,-116.67969 c 0.78125,-0.78 1.4651,-1.62142 2.05078,-2.50781 0.58569,-0.88639 1.07266,-1.81883 1.46289,-2.78125 0.39024,-0.96242 0.68206,-1.95479 0.87696,-2.96289 0.1949,-1.00811 0.29328,-2.03125 0.29297,-3.05469 -3.2e-4,-1.02343 -0.0976,-2.04627 -0.29297,-3.05469 -0.19541,-1.00841 -0.48852,-2.00179 -0.87891,-2.96484 -0.39039,-0.96305 -0.87959,-1.89588 -1.46484,-2.7832 -0.58526,-0.88733 -1.26688,-1.73047 -2.04688,-2.51172 -0.78,-0.78125 -1.62142,-1.464846 -2.50781,-2.050783 -0.88639,-0.585936 -1.81883,-1.074219 -2.78125,-1.464843 -0.96242,-0.390625 -1.95479,-0.683594 -2.96289,-0.878907 -1.00811,-0.195312 -2.03125,-0.292968 -3.05469,-0.292968 z"
     id="path3" fill="#424242"/>
  <path
     d="m 432,32 c 2.7575,0 5.48355,0.140498 8.16992,0.414062 2.68638,0.273565 5.33379,0.679259 7.93555,1.212891 2.60175,0.533632 5.15651,1.194405 7.66015,1.974609 2.50364,0.780205 4.95563,1.68008 7.34766,2.69336 2.39203,1.01328 4.72527,2.140187 6.99219,3.373047 2.26692,1.23286 4.46738,2.572775 6.5957,4.011718 2.12832,1.438944 4.18394,2.977844 6.16016,4.609375 1.97622,1.631532 3.87297,3.355393 5.68359,5.166016 1.81062,1.810623 3.53449,3.707375 5.16602,5.683594 1.63153,1.976219 3.17043,4.031838 4.60937,6.160156 1.43895,2.128318 2.77886,4.328782 4.01172,6.595703 1.23286,2.266922 2.35977,4.600159 3.37305,6.992188 1.01328,2.392029 1.91315,4.844016 2.69336,7.347656 0.7802,2.50364 1.44097,5.058401 1.97461,7.660156 0.53363,2.601755 0.93932,5.249169 1.21289,7.935549 C 511.8595,106.51645 512,109.2425 512,112 v 288 c 0,2.75625 -0.1405,5.48059 -0.41406,8.16602 -0.27357,2.68542 -0.67926,5.33252 -1.21289,7.93359 -0.53364,2.60107 -1.19441,5.15696 -1.97461,7.66016 -0.78021,2.50319 -1.68008,4.9539 -2.69336,7.3457 -1.01328,2.39179 -2.14019,4.72337 -3.37305,6.99023 -1.23286,2.26687 -2.57277,4.46924 -4.01172,6.59766 -1.43894,2.12842 -2.97784,4.18372 -4.60937,6.16016 -1.63153,1.97643 -3.3554,3.87265 -5.16602,5.68359 -1.81062,1.81094 -3.70737,3.53606 -5.68359,5.16797 -1.97622,1.63191 -4.03184,3.17197 -6.16016,4.61133 -2.12832,1.43935 -4.32878,2.77844 -6.5957,4.01171 -2.26692,1.23328 -4.60016,2.35938 -6.99219,3.37305 -2.39203,1.01367 -4.84401,1.91477 -7.34766,2.69531 -2.50364,0.78055 -5.0584,1.44073 -7.66015,1.97461 -2.60176,0.53389 -5.24917,0.94114 -7.93555,1.21485 C 437.48355,479.85964 434.7575,480 432,480 h -96 c -1.1,0 -2.17578,-0.11211 -3.21484,-0.32617 -1.03907,-0.21406 -2.0418,-0.5293 -2.99805,-0.93555 -0.95625,-0.40625 -1.86524,-0.90391 -2.7168,-1.48047 -0.85156,-0.57656 -1.64609,-1.23203 -2.37109,-1.95703 -0.725,-0.725 -1.38047,-1.51953 -1.95703,-2.37109 -0.57656,-0.85156 -1.07422,-1.76055 -1.48047,-2.7168 -0.40625,-0.95625 -0.72149,-1.95898 -0.93555,-2.99805 C 320.11211,466.17578 320,465.1 320,464 c 0,-1.1 0.11211,-2.17578 0.32617,-3.21484 0.21406,-1.03907 0.5293,-2.0418 0.93555,-2.99805 0.40625,-0.95625 0.90391,-1.86524 1.48047,-2.7168 0.57656,-0.85156 1.23203,-1.64609 1.95703,-2.37109 0.725,-0.725 1.51953,-1.38047 2.37109,-1.95703 0.85156,-0.57656 1.76055,-1.07422 2.7168,-1.48047 0.95625,-0.40625 1.95898,-0.72149 2.99805,-0.93555 C 333.82422,448.11211 334.9,448 336,448 h 96 c 1.65437,0 3.28866,-0.0841 4.90039,-0.24805 1.61173,-0.16394 3.20073,-0.40869 4.76172,-0.72851 1.56098,-0.31983 3.09552,-0.71399 4.59766,-1.18164 1.50214,-0.46765 2.973,-1.00782 4.4082,-1.61524 1.43519,-0.60742 2.83321,-1.28235 4.19336,-2.02148 1.36015,-0.73914 2.68198,-1.54151 3.95898,-2.4043 1.277,-0.86279 2.50956,-1.78723 3.69531,-2.76562 1.18576,-0.9784 2.32376,-2.01172 3.41016,-3.09766 1.08641,-1.08594 2.12065,-2.22278 3.09961,-3.4082 0.97896,-1.18543 1.90222,-2.42041 2.76563,-3.69727 0.8634,-1.27685 1.66844,-2.5968 2.4082,-3.95703 0.73976,-1.36023 1.41543,-2.75977 2.02344,-4.19531 0.608,-1.43555 1.14707,-2.90735 1.61523,-4.41016 0.46816,-1.5028 0.86534,-3.03564 1.18555,-4.59766 0.3202,-1.56201 0.56436,-3.15246 0.72851,-4.76562 C 479.91611,403.29309 480,401.65625 480,400 V 112 c 0,-1.65437 -0.0839,-3.28866 -0.24805,-4.90039 -0.16415,-1.61173 -0.40831,-3.20073 -0.72851,-4.76172 -0.32021,-1.56098 -0.71739,-3.095516 -1.18555,-4.597656 -0.46816,-1.502139 -1.00723,-2.973009 -1.61523,-4.408203 -0.60801,-1.435194 -1.28368,-2.833212 -2.02344,-4.193359 -0.73976,-1.360148 -1.5448,-2.681984 -2.4082,-3.958985 -0.86341,-1.277 -1.78667,-2.509559 -2.76563,-3.695312 -0.97896,-1.185753 -2.0132,-2.323751 -3.09961,-3.410156 -1.0864,-1.086405 -2.2244,-2.120653 -3.41016,-3.09961 -1.18575,-0.978956 -2.41831,-1.902217 -3.69531,-2.765625 -1.277,-0.863407 -2.59883,-1.668445 -3.95898,-2.408203 -1.36015,-0.739757 -2.75817,-1.41543 -4.19336,-2.023437 -1.4352,-0.608007 -2.90606,-1.147078 -4.4082,-1.615235 -1.50214,-0.468156 -3.03668,-0.865342 -4.59766,-1.185547 -1.56099,-0.320204 -3.14999,-0.564362 -4.76172,-0.728515 C 435.28866,64.083894 433.65437,64 432,64 h -96 c -1.1,0 -2.17578,-0.111172 -3.21484,-0.324219 -1.03907,-0.213046 -2.0418,-0.528906 -2.99805,-0.933594 -0.95625,-0.404687 -1.86524,-0.899688 -2.7168,-1.474609 -0.85156,-0.574921 -1.64609,-1.229376 -2.37109,-1.953125 -0.725,-0.723749 -1.38047,-1.516016 -1.95703,-2.367187 -0.57656,-0.851171 -1.07422,-1.761564 -1.48047,-2.71875 -0.40625,-0.957187 -0.72149,-1.962111 -0.93555,-3.003907 C 320.11211,50.182814 320,49.104999 320,48 c 0,-1.104999 0.11211,-2.182814 0.32617,-3.224609 0.21406,-1.041796 0.5293,-2.04672 0.93555,-3.003907 0.40625,-0.957186 0.90391,-1.867579 1.48047,-2.71875 0.57656,-0.851171 1.23203,-1.643438 1.95703,-2.367187 0.725,-0.723749 1.51953,-1.378204 2.37109,-1.953125 0.85156,-0.574921 1.76055,-1.069922 2.7168,-1.47461 0.95625,-0.404687 1.95898,-0.720547 2.99805,-0.933593 C 333.82422,32.111172 334.9,32 336,32 Z"
     id="path2" fill="#424242"/>
</svg>
