<svg width="60" height="70" viewBox="0 0 60 70" fill="none" xmlns="http://www.w3.org/2000/svg">
  <path
    d="M60 52.5046V17.4954L29.9909 0L0 17.4954V52.5046L29.9909 70L60 52.5046Z"
    fill="url(#paint0_linear_459_3707)"
  />
  <path
    d="M38.9947 49.3666C37.3957 49.409 35.8345 48.8721 34.5929 47.8531C33.9738 47.317 33.4865 46.6428 33.1696 45.8837C32.8526 45.1247 32.7146 44.3015 32.7665 43.4793C32.7058 42.6534 32.8397 41.8248 33.1572 41.0614C33.4747 40.2979 33.9667 39.6213 34.5929 39.087C35.8632 38.0859 37.4393 37.5639 39.0496 37.6107C40.8 37.57 42.5189 38.0864 43.9628 39.087V35.396C42.2967 34.435 40.401 33.9562 38.4834 34.0119H27.5245C27.5294 33.8118 27.5601 33.6134 27.6158 33.4214C27.6656 33.2393 27.7266 33.0605 27.7984 32.8861C27.8874 32.7014 27.9977 32.5279 28.1271 32.3693L28.529 31.9079C28.6827 31.7307 28.854 31.5699 29.0404 31.4281L29.6248 31.0037L30.3006 30.5977L30.9765 30.1733L31.7253 29.7119L32.4377 29.269C33.8989 28.439 35.239 27.4079 36.4194 26.2054C37.3574 25.2102 37.8806 23.8886 37.8806 22.5144C37.9271 21.7331 37.7851 20.952 37.467 20.2384C37.1489 19.5247 36.664 18.9 36.0541 18.4174C34.6063 17.3994 32.8662 16.8932 31.1043 16.9779C28.8625 16.9409 26.6613 17.5837 24.7847 18.8234V22.053C26.5351 20.7482 28.6379 20.0141 30.8121 19.9491C31.8051 19.892 32.7936 20.1224 33.6614 20.6135C33.9731 20.8079 34.2305 21.0795 34.4094 21.4024C34.5884 21.7253 34.683 22.0889 34.6842 22.459C34.6766 22.938 34.5704 23.4103 34.3723 23.8456C34.1742 24.2809 33.8885 24.6697 33.5335 24.9873C32.5549 25.7627 31.5096 26.4482 30.4102 27.0358C28.8029 28.0324 27.6888 28.7522 27.1043 29.1951C26.1479 29.9288 25.3572 30.8599 24.7847 31.9264V24.6922H21.4239L11.0312 37.6107V40.5081H21.6248V44.5314H24.7847V37.1493H31.1591C30.3421 38.0246 29.709 39.0579 29.2978 40.187C28.8866 41.3162 28.7058 42.5176 28.7664 43.7192C28.6876 45.0061 28.9017 46.294 29.3925 47.4841C29.8833 48.6743 30.6376 49.7349 31.5975 50.5845C33.4743 52.1714 35.8536 53.0231 38.3006 52.9837C40.3226 53.0274 42.3279 52.6045 44.1637 51.7471V48.0561C42.5852 48.9459 40.8019 49.3981 38.9947 49.3666ZM21.6248 37.6107H14.6842L21.6248 29.0106V37.6107Z"
    fill="white"
  />
  <defs>
    <linearGradient
      id="paint0_linear_459_3707"
      x1="6.3379"
      y1="11.0915"
      x2="54.1524"
      y2="58.4131"
      gradientUnits="userSpaceOnUse"
    >
      <stop stop-color="#783C8C" />
      <stop offset="0.19" stop-color="#6F3C8B" />
      <stop offset="0.49" stop-color="#583A87" />
      <stop offset="0.87" stop-color="#323881" />
      <stop offset="0.95" stop-color="#29387F" />
    </linearGradient>
  </defs>
</svg>
